<?xml version="1.0" encoding="UTF-8"?>
<svg width="24px" height="24px" viewBox="0 0 24 24" version="1.1" xmlns="http://www.w3.org/2000/svg" xmlns:xlink="http://www.w3.org/1999/xlink">
    <!-- Generator: Sketch 61 (89581) - https://sketch.com -->
    <title>Icons / Interface / Full screen / Exit</title>
    <desc>Created with Sketch.</desc>
    <defs>
        <path d="M19.8477068,3 C20.1332654,3 20.4188241,3.10928349 20.6374549,3.32673535 L20.6374549,3.32673535 L20.6742652,3.36353489 C21.1037186,3.7928629 21.1115268,4.50097534 20.6798425,4.93364877 L20.6798425,4.93364877 L16.6139293,8.997 L18,8.997 C18.5135,8.997 18.935602,9.38328571 18.9932824,9.88123214 L19,9.998 C19,10.551 18.553,11 18,11 L18,11 L14.1,11 C13.493,11 13,10.506 13,9.898 L13,9.898 L13,6.002 C13,5.448 13.448,5 14,5 C14.552,5 15,5.448 15,6.002 L15,6.002 L14.9999293,7.387 L19.0668824,3.32115966 C19.2504558,3.13859569 19.4848397,3.03304449 19.7264823,3.0066128 Z M9.9,13 C10.5072847,13 11,13.4935378 11,14.1018364 L11,14.1018364 L11,17.9983306 C11,18.5515373 10.5522847,19 10,19 C9.44771525,19 9,18.5515373 9,17.9983306 L9,17.9983306 L8.99992933,16.444 L5.14668591,20.2985225 C4.79100009,20.6542083 4.22505388,20.6817496 3.83355627,20.3773484 L3.73953885,20.2943305 L3.70566953,20.2604612 C3.32073858,19.8755302 3.31406219,19.2407294 3.70147752,18.8533141 L3.70147752,18.8533141 L7.55092933,15.003 L6,15.0033389 C5.48716416,15.0033389 5.06449284,14.6166542 5.00672773,14.1184853 L5,14.0016694 C5,13.4484627 5.44771525,13 6,13 L6,13 Z" id="path-1"></path>
    </defs>
    <g id="Icons-/-Interface-/-Full-screen-/-Exit" stroke="none" stroke-width="1" fill="none" fill-rule="evenodd">
        <mask id="mask-2" fill="white">
            <use xlink:href="#path-1"></use>
        </mask>
        <use id="Clip-5" fill="#3DC0EF" xlink:href="#path-1"></use>
    </g>
</svg>