<?xml version="1.0" encoding="UTF-8"?>
<svg width="24px" height="24px" viewBox="0 0 24 24" version="1.1" xmlns="http://www.w3.org/2000/svg" xmlns:xlink="http://www.w3.org/1999/xlink">
    <!-- Generator: Sketch 61 (89581) - https://sketch.com -->
    <title>Icons / Interface / Timer / 2</title>
    <desc>Created with Sketch.</desc>
    <g id="Icons-/-Interface-/-Timer-/-2" stroke="none" stroke-width="1" fill="none" fill-rule="evenodd">
        <path d="M14.6647522,2 L14.6647522,3.32352941 L12.8694,3.323 L12.8696769,4.19709278 C14.7745818,4.38518876 16.5734783,5.16859453 17.9979554,6.43798125 L18.345,6.0977 L17.726089,5.48874234 L18.6778073,4.55286572 L21,6.83640468 L20.0482817,7.7722813 L19.2963,7.0328 L18.924799,7.39779767 C20.1639258,8.89087085 20.8757089,10.7474955 20.940864,12.6844873 L20.9457726,12.9764706 C20.9457726,17.8495713 16.9284746,21.8 11.9728863,21.8 C7.01729804,21.8 3,17.8495713 3,12.9764706 C3,8.40137719 6.5409778,4.63955711 11.0749622,4.19656964 L11.0748,3.323 L9.47842392,3.32352941 L9.47842392,2 L14.6647522,2 Z M11.9728863,5.75882353 C7.92126476,5.76368526 4.63800933,8.99228972 4.63306531,12.9764706 C4.63306531,16.962667 7.91921511,20.1941176 11.9728863,20.1941176 C16.0265575,20.1941176 19.3127073,16.962667 19.3127073,12.9764706 C19.3127073,8.99027419 16.0265575,5.75882353 11.9728863,5.75882353 Z M11.9728863,7.77941176 C14.9462393,7.77941176 17.3566181,10.149669 17.3566181,13.0735294 C17.3566181,15.9973899 14.9462393,18.3676471 11.9728863,18.3676471 C9.06710956,18.3676471 6.69900799,16.1039045 6.59286793,13.2720044 L6.58915453,13.0735294 L11.9728863,13.0735294 L11.9728863,7.77941176 Z" id="Shape" fill="#3DC0EF"></path>
    </g>
</svg>