<?xml version="1.0" encoding="UTF-8"?>
<svg width="24px" height="24px" viewBox="0 0 24 24" version="1.1" xmlns="http://www.w3.org/2000/svg" xmlns:xlink="http://www.w3.org/1999/xlink">
    <!-- Generator: Sketch 61 (89581) - https://sketch.com -->
    <title>Icons / Interface / Timer / 3</title>
    <desc>Created with Sketch.</desc>
    <g id="Icons-/-Interface-/-Timer-/-3" stroke="none" stroke-width="1" fill="none" fill-rule="evenodd">
        <path d="M14.6647522,2 L14.6647522,3.32352941 L12.87,3.323 L12.8707488,4.19719869 C14.7749433,4.38545171 16.5731537,5.16857489 17.9972524,6.43735486 L18.345,6.097 L17.726089,5.48874234 L18.6778073,4.55286572 L21,6.83640468 L20.0482817,7.7722813 L19.297,7.033 L18.9245884,7.397544 C20.1611433,8.88740519 20.8725986,10.7392913 20.9404286,12.6718183 L20.9457726,12.9764706 C20.9457726,17.8495713 16.9284746,21.8 11.9728863,21.8 C7.01729804,21.8 3,17.8495713 3,12.9764706 C3,8.40138698 6.54096265,4.63957319 11.0749331,4.19657248 L11.075,3.323 L9.47842392,3.32352941 L9.47842392,2 L14.6647522,2 Z M11.9728863,5.75882353 C7.92126476,5.76368526 4.63800933,8.99228972 4.63306531,12.9764706 C4.63306531,16.962667 7.91921511,20.1941176 11.9728863,20.1941176 C16.0265575,20.1941176 19.3127073,16.962667 19.3127073,12.9764706 C19.3127073,8.99027419 16.0265575,5.75882353 11.9728863,5.75882353 Z M11.9728863,7.77941176 C14.9462393,7.77941176 17.3566181,10.149669 17.3566181,13.0735294 L17.3566181,13.0735294 L11.9728863,13.0735294 Z" id="Combined-Shape" fill="#3DC0EF"></path>
    </g>
</svg>