<?xml version="1.0" encoding="UTF-8"?>
<svg width="24px" height="24px" viewBox="0 0 24 24" version="1.1" 
    xmlns="http://www.w3.org/2000/svg" 
    xmlns:xlink="http://www.w3.org/1999/xlink">
    <!-- Generator: Sketch 61 (89581) - https://sketch.com -->
    <title>Icons / Interface / Timer / 4</title>
    <desc>Created with Sketch.</desc>
    <g id="Icons-/-Interface-/-Timer-/-4" stroke="none" stroke-width="1">
        <path d="M15.1790558,2 L15.1790558,3.32054667 L13.4183269,3.32054667 L13.4193161,4.18907052 C15.3494141,4.37507229 17.0973319,5.18429585 18.459402,6.41307366 L18.7867893,6.08489105 L18.1878398,5.48606852 L19.1216073,4.55230102 L21.4,6.83069374 L20.4662325,7.76446124 L19.720856,7.01895773 L19.3714928,7.36856105 C20.6191094,8.88790155 21.3680179,10.8323592 21.3680179,12.9517338 C21.3680179,17.8138523 17.426492,21.7553782 12.5643734,21.7553782 C9.72823707,21.7553782 7.205336,20.4142587 5.59524832,18.3315977 L7.76772732,18.3310921 C9.0395066,19.4638342 10.7156327,20.1523616 12.5526388,20.1531096 C16.5287048,20.1547272 19.7537091,16.9336607 19.756951,12.9575957 C19.760188,8.98153064 16.5404368,5.75521327 12.5643734,5.75035255 C10.3495155,5.75035255 8.36768809,6.7490833 7.04498891,8.32096894 L5.07538971,8.32132642 C6.47727375,6.05880089 8.87584551,4.47871879 11.6580072,4.1941779 L11.657598,3.32054667 L10.0905493,3.32054667 L10.0905493,2 L15.1790558,2 Z M9.0429156,15.4255579 L9.0429156,16.6580681 L3.7607289,16.6580681 L3.7607289,15.4255579 L9.0429156,15.4255579 Z M16.5084061,9.52711604 L14.2719875,12.7413903 C14.2895381,12.841143 14.2986914,12.9437895 14.2986914,13.0485738 C14.2986914,14.0209976 13.5103862,14.8093027 12.5379625,14.8093027 C11.5655387,14.8093027 10.7772336,14.0209976 10.7772336,13.0485738 C10.7772336,12.0761501 11.5655387,11.2878449 12.5379625,11.2878449 C12.646456,11.2878449 12.7526577,11.2976577 12.8557283,11.3164441 L16.041813,9.08693382 C16.3059223,8.88444999 16.7020863,9.27181035 16.5084061,9.52711604 Z M7.2821867,12.4323187 L7.2821867,13.664829 L2,13.664829 L2,12.4323187 L7.2821867,12.4323187 Z M9.0429156,9.4390796 L9.0429156,10.6715898 L2.88036445,10.6715898 L2.88036445,9.4390796 L9.0429156,9.4390796 Z" id="Shape"></path>
    </g>
</svg>