<?xml version="1.0" encoding="UTF-8"?>
<svg width="24px" height="24px" viewBox="0 0 24 24" version="1.1" xmlns="http://www.w3.org/2000/svg" xmlns:xlink="http://www.w3.org/1999/xlink">
    <!-- Generator: Sketch 61 (89581) - https://sketch.com -->
    <title>Icons / Interface / Actions vertical</title>
    <desc>Created with Sketch.</desc>
    <g id="Icons-/-Interface-/-Actions-vertical" stroke="none" stroke-width="1" fill="none" fill-rule="evenodd">
        <path d="M5.79631037,10 C6.78838519,10 7.59262073,10.8042355 7.59262073,11.7963104 C7.59262073,12.7883852 6.78838519,13.5926207 5.79631037,13.5926207 C4.80423555,13.5926207 4,12.7883852 4,11.7963104 C4,10.8042355 4.80423555,10 5.79631037,10 Z M12.0833335,10 C13.0754083,10 13.8796439,10.8042355 13.8796439,11.7963104 C13.8796439,12.7883852 13.0754083,13.5926207 12.0833335,13.5926207 C11.0912587,13.5926207 10.2870231,12.7883852 10.2870231,11.7963104 C10.2870231,10.8042355 11.0912587,10 12.0833335,10 Z M18.3703566,10 C19.3624315,10 20.166667,10.8042355 20.166667,11.7963104 C20.166667,12.7883852 19.3624315,13.5926207 18.3703566,13.5926207 C17.3782818,13.5926207 16.5740463,12.7883852 16.5740463,11.7963104 C16.5740463,10.8042355 17.3782818,10 18.3703566,10 Z" id="Combined-Shape" fill="#3DC0EF" transform="translate(12.083333, 11.796310) rotate(90.000000) translate(-12.083333, -11.796310) "></path>
    </g>
</svg>