<?xml version="1.0" encoding="UTF-8"?>
<svg width="24px" height="24px" viewBox="0 0 24 24" version="1.1" xmlns="http://www.w3.org/2000/svg" xmlns:xlink="http://www.w3.org/1999/xlink">
    <!-- Generator: Sketch 61 (89581) - https://sketch.com -->
    <title>Icons / Interface / Alphabet</title>
    <desc>Created with Sketch.</desc>
    <g id="Icons-/-Interface-/-Alphabet" stroke="none" stroke-width="1" fill="none" fill-rule="evenodd">
        <path d="M12.3533333,4 L10.342963,6.01122222 L14.3645556,6.01122222 L12.3533333,4 Z M6.83333333,7.3827037 L3,17.1449259 L4.56740741,17.1449259 L5.35111111,15.0578889 L9.70492593,15.0578889 L10.4877778,17.1449259 L12.0551852,17.1449259 L8.23037037,7.3827037 L6.83333333,7.3827037 Z M7.52333333,9.24825926 L9.17592593,13.66 L5.87159259,13.66 L7.52333333,9.24825926 Z M13.0177778,7.39037037 L13.0177778,8.75333333 L18.0266667,8.75333333 L12.9845556,16.046037 L12.9845556,17.1449259 L20.25,17.1449259 L20.25,15.7896296 L15.0375185,15.7896296 L20.0881481,8.46455556 L20.0881481,7.39037037 L13.0177778,7.39037037 Z M10.3685185,18.5411111 L12.3533333,20.5259259 L14.3381481,18.5411111 L10.3685185,18.5411111 Z" id="Icons-/-Alphabet" fill="#3DC0EF"></path>
    </g>
</svg>