<?xml version="1.0" encoding="UTF-8"?>
<svg width="24px" height="24px" viewBox="0 0 24 24" version="1.1" 
    xmlns="http://www.w3.org/2000/svg" 
    xmlns:xlink="http://www.w3.org/1999/xlink">
    <!-- Generator: Sketch 61 (89581) - https://sketch.com -->
    <title>Icons / Interface / Android</title>
    <desc>Created with Sketch.</desc>
    <g id="Icons-/-Interface-/-Android" stroke="none" stroke-width="1">
        <path d="M8.4802736,15.8880976 C8.4802736,16.2207895 8.75930438,16.4929919 9.100342,16.4929919 L9.7204104,16.4929919 L9.7204104,18.610122 C9.7204104,19.1121843 10.1358562,19.5174635 10.650513,19.5174635 C11.1651698,19.5174635 11.5806156,19.1121843 11.5806156,18.610122 L11.5806156,16.4929919 L12.8207524,16.4929919 L12.8207524,18.610122 C12.8207524,19.1121843 13.2361982,19.5174635 13.750855,19.5174635 C14.2655118,19.5174635 14.6809576,19.1121843 14.6809576,18.610122 L14.6809576,16.4929919 L15.301026,16.4929919 C15.6420636,16.4929919 15.9210944,16.2207895 15.9210944,15.8880976 L15.9210944,9.8391545 L8.4802736,9.8391545 L8.4802736,15.8880976 Z M6.9301026,9.8391545 C6.41544583,9.8391545 6,10.2444337 6,10.746496 L6,14.9807562 C6,15.4828184 6.41544583,15.8880976 6.9301026,15.8880976 C7.44475937,15.8880976 7.8602052,15.4828184 7.8602052,14.9807562 L7.8602052,10.746496 C7.8602052,10.2444337 7.44475937,9.8391545 6.9301026,9.8391545 Z M17.4712654,9.8391545 C16.9566086,9.8391545 16.5411628,10.2444337 16.5411628,10.746496 L16.5411628,14.9807562 C16.5411628,15.4828184 16.9566086,15.8880976 17.4712654,15.8880976 C17.9859222,15.8880976 18.401368,15.4828184 18.401368,14.9807562 L18.401368,10.746496 C18.401368,10.2444337 17.9859222,9.8391545 17.4712654,9.8391545 Z M14.3895255,6.30657171 L15.1956144,5.52020911 C15.3196281,5.39923025 15.3196281,5.21171301 15.1956144,5.09073415 C15.0716007,4.96975528 14.8793795,4.96975528 14.7553658,5.09073415 L13.8376646,5.98597773 C13.3478105,5.74402 12.789749,5.60489431 12.200684,5.60489431 C11.6054183,5.60489431 11.0473568,5.74402 10.5513021,5.98597773 L9.62740014,5.09073415 C9.50338646,4.96975528 9.31116526,4.96975528 9.18715158,5.09073415 C9.0631379,5.21171301 9.0631379,5.39923025 9.18715158,5.52020911 L9.99944118,6.31262066 C9.08173995,6.97195546 8.4802736,8.0305205 8.4802736,9.23426019 L15.9210944,9.23426019 C15.9210944,8.0305205 15.3196281,6.96590652 14.3895255,6.30657171 L14.3895255,6.30657171 Z M10.9605472,8.02447156 L10.3404788,8.02447156 L10.3404788,7.41957725 L10.9605472,7.41957725 L10.9605472,8.02447156 Z M14.0608892,8.02447156 L13.4408208,8.02447156 L13.4408208,7.41957725 L14.0608892,7.41957725 L14.0608892,8.02447156 Z" id="Icons-/-Android" ></path>
    </g>
</svg>