<?xml version="1.0" encoding="UTF-8"?>
<svg width="24px" height="24px" viewBox="0 0 24 24" version="1.1" xmlns="http://www.w3.org/2000/svg" xmlns:xlink="http://www.w3.org/1999/xlink">
    <!-- Generator: Sketch 61 (89581) - https://sketch.com -->
    <title>Icons / Interface / Android 2</title>
    <desc>Created with Sketch.</desc>
    <g id="Icons-/-Interface-/-Android-2" stroke="none" stroke-width="1" fill="none" fill-rule="evenodd">
        <path d="M11.4695652,19.4393237 C11.8698551,19.4393237 12.1942029,19.7636715 12.1942029,20.1639614 C12.1942029,21.1301449 11.4082126,21.9161353 10.442029,21.9161353 C9.47584541,21.9161353 8.68985507,21.1301449 8.68985507,20.1639614 C8.68985507,19.7636715 9.01429952,19.4393237 9.41449275,19.4393237 C9.81468599,19.4393237 10.1391304,19.7636715 10.1391304,20.1639614 C10.1391304,20.3310145 10.2749758,20.4668599 10.442029,20.4668599 C10.6090821,20.4668599 10.7449275,20.3310145 10.7449275,20.1639614 C10.7449275,19.7636715 11.069372,19.4393237 11.4695652,19.4393237 Z M15.2164251,19.4393237 C15.6166184,19.4393237 15.9410628,19.7636715 15.9410628,20.1639614 C15.9410628,21.1301449 15.1549758,21.9161353 14.1888889,21.9161353 C13.2226087,21.9161353 12.4365217,21.1301449 12.4365217,20.1639614 C12.4365217,19.7636715 12.7609662,19.4393237 13.1611594,19.4393237 C13.5613527,19.4393237 13.8857971,19.7636715 13.8857971,20.1639614 C13.8857971,20.3310145 14.0218357,20.4668599 14.1888889,20.4668599 C14.355942,20.4668599 14.4917874,20.3310145 14.4917874,20.1639614 C14.4917874,19.7636715 14.8162319,19.4393237 15.2164251,19.4393237 Z M17.2691787,10.5932367 C17.669372,10.5932367 17.9938164,10.9176812 17.9938164,11.3178744 L17.9938164,11.3178744 L17.9938164,16.3691787 C17.9938164,17.3891787 17.1639614,18.2191304 16.1438647,18.2191304 L16.1438647,18.2191304 L8.48705314,18.2191304 C7.46695652,18.2191304 6.63700483,17.3892754 6.63700483,16.3691787 L6.63700483,16.3691787 L6.63700483,11.3178744 C6.63700483,10.9175845 6.96144928,10.5932367 7.36164251,10.5932367 C7.76183575,10.5932367 8.08628019,10.9175845 8.08628019,11.3178744 L8.08628019,11.3178744 L8.08628019,16.3691787 C8.08628019,16.5863768 8.26985507,16.7698551 8.48705314,16.7698551 L8.48705314,16.7698551 L16.1438647,16.7698551 C16.3610628,16.7698551 16.5445411,16.5863768 16.5445411,16.3691787 L16.5445411,16.3691787 L16.5445411,11.3178744 C16.5445411,10.9175845 16.8689855,10.5932367 17.2691787,10.5932367 Z M5.76512077,9.07352657 C6.16531401,9.07352657 6.48975845,9.39797101 6.48975845,9.79816425 C6.48975845,10.1984541 6.16531401,10.5228019 5.76512077,10.5228019 C5.59816425,10.5228019 5.46231884,10.6586473 5.46222222,10.8256039 L5.46222222,10.8256039 L5.46222222,14.8304348 C5.46222222,14.9973913 5.59806763,15.1332367 5.76512077,15.1332367 C6.16531401,15.1332367 6.48975845,15.4575845 6.48975845,15.8578744 C6.48975845,16.2581643 6.16531401,16.5825121 5.76512077,16.5825121 C4.7989372,16.5825121 4.01294686,15.7965217 4.01294686,14.8304348 L4.01294686,14.8304348 L4.01294686,10.8256039 C4.01294686,9.85951691 4.7989372,9.07352657 5.76512077,9.07352657 Z M18.8658937,9.07352657 C19.8320773,9.07352657 20.6180676,9.85951691 20.6180676,10.8256039 L20.6180676,10.8256039 L20.6180676,14.8304348 C20.6180676,15.7965217 19.8319807,16.5825121 18.8658937,16.5825121 C18.4657005,16.5825121 18.141256,16.2581643 18.141256,15.8578744 C18.141256,15.4575845 18.4657005,15.1332367 18.8658937,15.1332367 C19.0329469,15.1332367 19.1687923,14.9973913 19.1687923,14.8304348 L19.1687923,14.8304348 L19.1687923,10.8256039 C19.1687923,10.6586473 19.0329469,10.5228019 18.8658937,10.5228019 C18.4657005,10.5228019 18.141256,10.1984541 18.141256,9.79816425 C18.141256,9.39797101 18.4657005,9.07352657 18.8658937,9.07352657 Z M15.3228986,2.33458937 C15.5382609,1.99719807 15.9862802,1.89864734 16.3236715,2.11400966 C16.6609662,2.32937198 16.7597101,2.77748792 16.5442512,3.11468599 L16.5442512,3.11468599 L15.6556522,4.50570048 C16.9330435,5.42589372 17.8163285,6.86521739 17.9899517,8.54328502 C18.0110145,8.74724638 17.9446377,8.95082126 17.8072464,9.10318841 C17.6698551,9.25555556 17.4743961,9.34251208 17.2691787,9.34251208 L17.2691787,9.34251208 L7.36164251,9.34251208 C7.15642512,9.34251208 6.96086957,9.25555556 6.82338164,9.10318841 C6.68599034,8.95091787 6.61961353,8.747343 6.64077295,8.54328502 C6.81449275,6.86521739 7.69777778,5.42589372 8.97516908,4.50570048 L8.97516908,4.50570048 L8.08666667,3.11478261 C7.87120773,2.77758454 7.96995169,2.3294686 8.30724638,2.11410628 C8.64425121,1.89864734 9.09256039,1.99729469 9.30801932,2.33468599 L9.30801932,2.33468599 L10.2525604,3.81323671 C10.8933333,3.56618357 11.5890821,3.43111111 12.3153623,3.43111111 C13.0416425,3.43111111 13.7375845,3.56618357 14.3783575,3.81323671 L14.3783575,3.81323671 Z M12.3153623,4.88038647 C11.6162319,4.88038647 10.9549758,5.04821256 10.3711111,5.3468599 C10.3390338,5.36724638 10.3058937,5.38444444 10.2720773,5.39922705 C9.30869565,5.92454106 8.56917874,6.81188406 8.2426087,7.8931401 L8.2426087,7.8931401 L16.3882126,7.8931401 C16.0616425,6.81169082 15.322029,5.92434783 14.3584541,5.39913043 C14.3254106,5.38463768 14.2929469,5.36763285 14.2614493,5.34772947 C13.6770048,5.04859903 13.0152657,4.88038647 12.3153623,4.88038647 Z" id="Combined-Shape" fill="#3DC0EF"></path>
    </g>
</svg>