<?xml version="1.0" encoding="UTF-8"?>
<svg width="24px" height="24px" viewBox="0 0 24 24" version="1.1" 
    xmlns="http://www.w3.org/2000/svg" 
    xmlns:xlink="http://www.w3.org/1999/xlink">
    <!-- Generator: Sketch 61 (89581) - https://sketch.com -->
    <title>Icons / Interface / Copy</title>
    <desc>Created with Sketch.</desc>
    <g id="Icons-/-Interface-/-Copy" stroke="none" stroke-width="1">
        <path d="M14.9473684,3 L5.68421053,3 C4.75789474,3 4,3.75789474 4,4.68421053 L4,15.6315789 C4,16.0947368 4.37894737,16.4736842 4.84210526,16.4736842 C5.30526316,16.4736842 5.68421053,16.0947368 5.68421053,15.6315789 L5.68421053,5.52631579 C5.68421053,5.06315789 6.06315789,4.68421053 6.52631579,4.68421053 L14.9473684,4.68421053 C15.4105263,4.68421053 15.7894737,4.30526316 15.7894737,3.84210526 C15.7894737,3.37894737 15.4105263,3 14.9473684,3 Z M15.4442105,6.86526316 L19.5115789,10.9326316 C19.8231579,11.2442105 20,11.6736842 20,12.12 L20,19.8421053 C20,20.7684211 19.2421053,21.5263158 18.3157895,21.5263158 L9.04421053,21.5263158 C8.11789474,21.5263158 7.36842105,20.7684211 7.36842105,19.8421053 L7.37684211,8.05263158 C7.37684211,7.12631579 8.12631579,6.36842105 9.05263158,6.36842105 L14.2484211,6.36842105 C14.6947368,6.36842105 15.1242105,6.54526316 15.4442105,6.86526316 Z M14.9473684,12.2631579 L18.7368421,12.2631579 L14.1052632,7.63157895 L14.1052632,11.4210526 C14.1052632,11.8842105 14.4842105,12.2631579 14.9473684,12.2631579 Z" id="Shape"></path>
    </g>
</svg>