<?xml version="1.0" encoding="UTF-8"?>
<svg width="24px" height="24px" viewBox="0 0 24 24" version="1.1" xmlns="http://www.w3.org/2000/svg" xmlns:xlink="http://www.w3.org/1999/xlink">
    <!-- Generator: Sketch 61 (89581) - https://sketch.com -->
    <title>Icons / Interface / CPU</title>
    <desc>Created with Sketch.</desc>
    <g id="Icons-/-Interface-/-CPU" stroke="none" stroke-width="1" fill="none" fill-rule="evenodd">
        <path d="M15.0455469,2 C15.4429297,2 15.765,2.32207031 15.7649609,2.71941406 L15.7649609,2.71941406 L15.764,4.014 L19.2661719,4.014375 C19.6304395,4.014375 19.9314236,4.28500353 19.979058,4.63619423 L19.985625,4.73382812 L19.985,8.235 L21.2805859,8.235 C21.6448177,8.235 21.9457989,8.50562853 21.993433,8.85678914 L22,8.95441406 C22,9.35175781 21.6782031,9.67382812 21.2805859,9.67382812 L21.2805859,9.67382812 L19.985,9.673 L19.985,13.486 L21.2805859,13.4867969 C21.6448177,13.4867969 21.9457989,13.7574254 21.993433,14.108586 L22,14.2062109 C22,14.6035547 21.6782031,14.925625 21.2805859,14.925625 L21.2805859,14.925625 L19.985,14.925 L19.985625,19.2661719 C19.985625,19.6304036 19.7149965,19.9313848 19.3638359,19.979019 L19.2662109,19.9855859 L15.764,19.985 L15.7649609,21.2805469 C15.7649609,21.6449935 15.4945622,21.9457956 15.1432292,21.9933984 L15.0455469,21.9999609 C14.6482031,21.9999609 14.3261328,21.6778906 14.3261328,21.2805469 L14.3261328,21.2805469 L14.326,19.985 L9.673,19.985 L9.67386719,21.2805469 C9.67386719,21.6449935 9.40323866,21.9457956 9.05207804,21.9933984 L8.95445313,21.9999609 C8.55710938,21.9999609 8.23503906,21.6778906 8.23503906,21.2805469 L8.23503906,21.2805469 L8.235,19.985 L4.73382813,19.9855859 C4.36959635,19.9855859 4.06861518,19.7149574 4.02098104,19.3637968 L4.01441406,19.2661719 L4.014,14.925 L2.71941406,14.9256641 C2.35518229,14.9256641 2.05420112,14.6550684 2.00656698,14.3038831 L2,14.20625 C2,13.8088672 2.32207031,13.4867969 2.71941406,13.4867969 L2.71941406,13.4867969 L4.014,13.486 L4.014,9.673 L2.71941406,9.67386719 C2.35518229,9.67386719 2.05420112,9.40327148 2.00656698,9.05208625 L2,8.95445312 C2,8.55707031 2.32207031,8.235 2.71941406,8.235 L2.71941406,8.235 L4.014,8.235 L4.01441406,4.73378906 C4.01441406,4.36955729 4.28504259,4.06857612 4.63620321,4.02094198 L4.73382813,4.014375 L8.235,4.014 L8.23503906,2.71941406 C8.23503906,2.35518229 8.50566759,2.05420112 8.85682821,2.00656698 L8.95445313,2 C9.35179688,2 9.67386719,2.32207031 9.67386719,2.71941406 L9.67386719,2.71941406 L9.673,4.014 L14.326,4.014 L14.3261328,2.71941406 C14.3261328,2.35518229 14.5967613,2.05420112 14.947922,2.00656698 Z M18.5467578,5.45324219 L5.45324219,5.45324219 L5.45324219,18.5467578 L18.5467578,18.5467578 L18.5467578,5.45324219 Z M14.8057422,8.49878906 C15.203125,8.49878906 15.5251953,8.82085937 15.5251953,9.21824219 L15.5251953,9.21824219 L15.5251953,14.8057422 C15.5251953,15.2033203 15.2033984,15.5251562 14.8057813,15.5251562 L14.8057813,15.5251562 L9.21824219,15.5251562 C8.82089844,15.5251562 8.49882813,15.2030859 8.49882813,14.8057422 L8.49882813,14.8057422 L8.49882813,9.21820312 C8.49882813,8.82085937 8.82089844,8.49878906 9.21824219,8.49878906 L9.21824219,8.49878906 Z M14.0863281,9.93765625 L9.93765625,9.93765625 L9.93765625,14.0863281 L14.0863281,14.0863281 L14.0863281,9.93765625 Z" id="Combined-Shape" fill="#3DC0EF"></path>
    </g>
</svg>