<?xml version="1.0" encoding="UTF-8"?>
<svg width="24px" height="24px" viewBox="0 0 24 24" version="1.1" xmlns="http://www.w3.org/2000/svg" xmlns:xlink="http://www.w3.org/1999/xlink">
    <!-- Generator: Sketch 61 (89581) - https://sketch.com -->
    <title>Icons / Interface / Double expand Down</title>
    <desc>Created with Sketch.</desc>
    <g id="Icons-/-Interface-/-Double-expand-Down" stroke="none" stroke-width="1" fill="none" fill-rule="evenodd">
        <path d="M8.91507576,8.48076118 L13.507969,3.88786797 C13.8945683,3.50126864 14.5213697,3.50126864 14.907969,3.88786797 C15.2945683,4.27446729 15.2945683,4.90126864 14.907969,5.28786797 L11.007969,9.18786797 L14.907969,13.087868 C15.2945683,13.4744673 15.2945683,14.1012686 14.907969,14.487868 C14.5213697,14.8744673 13.8945683,14.8744673 13.507969,14.487868 L8.91507576,9.89497475 C8.52455147,9.50445046 8.52455147,8.87128548 8.91507576,8.48076118 L8.91507576,8.48076118 Z" id="Shape" fill="#3DC0EF" transform="translate(11.910051, 9.187868) scale(1, -1) rotate(90.000000) translate(-11.910051, -9.187868) "></path>
        <path d="M8.91507576,14.9807612 L13.507969,10.387868 C13.8945683,10.0012686 14.5213697,10.0012686 14.907969,10.387868 C15.2945683,10.7744673 15.2945683,11.4012686 14.907969,11.787868 L11.007969,15.687868 L14.907969,19.587868 C15.2945683,19.9744673 15.2945683,20.6012686 14.907969,20.987868 C14.5213697,21.3744673 13.8945683,21.3744673 13.507969,20.987868 L8.91507576,16.3949747 C8.52455147,16.0044505 8.52455147,15.3712855 8.91507576,14.9807612 L8.91507576,14.9807612 Z" id="Shape" fill="#CFD7E2" transform="translate(11.910051, 15.687868) scale(1, -1) rotate(90.000000) translate(-11.910051, -15.687868) "></path>
    </g>
</svg>