<?xml version="1.0" encoding="UTF-8"?>
<svg width="24px" height="24px" viewBox="0 0 24 24" version="1.1" xmlns="http://www.w3.org/2000/svg" xmlns:xlink="http://www.w3.org/1999/xlink">
    <!-- Generator: Sketch 61 (89581) - https://sketch.com -->
    <title>Icons / Interface / Double expand Right</title>
    <desc>Created with Sketch.</desc>
    <g id="Icons-/-Interface-/-Double-expand-Right" stroke="none" stroke-width="1" fill="none" fill-rule="evenodd">
        <path d="M6.29289322,11.2828427 L10.8857864,6.68994949 C11.2723858,6.30335017 11.8991871,6.30335017 12.2857864,6.68994949 C12.6723858,7.07654882 12.6723858,7.70335017 12.2857864,8.08994949 L8.38578644,11.9899495 L12.2857864,15.8899495 C12.6723858,16.2765488 12.6723858,16.9033502 12.2857864,17.2899495 C11.8991871,17.6765488 11.2723858,17.6765488 10.8857864,17.2899495 L6.29289322,12.6970563 C5.90236893,12.306532 5.90236893,11.673367 6.29289322,11.2828427 L6.29289322,11.2828427 Z" id="Shape" fill="#3DC0EF" transform="translate(9.287868, 11.989949) scale(-1, 1) translate(-9.287868, -11.989949) "></path>
        <path d="M12.7928932,11.2828427 L17.3857864,6.68994949 C17.7723858,6.30335017 18.3991871,6.30335017 18.7857864,6.68994949 C19.1723858,7.07654882 19.1723858,7.70335017 18.7857864,8.08994949 L14.8857864,11.9899495 L18.7857864,15.8899495 C19.1723858,16.2765488 19.1723858,16.9033502 18.7857864,17.2899495 C18.3991871,17.6765488 17.7723858,17.6765488 17.3857864,17.2899495 L12.7928932,12.6970563 C12.4023689,12.306532 12.4023689,11.673367 12.7928932,11.2828427 L12.7928932,11.2828427 Z" id="Shape" fill="#CFD7E2" transform="translate(15.787868, 11.989949) scale(-1, 1) translate(-15.787868, -11.989949) "></path>
    </g>
</svg>