<?xml version="1.0" encoding="UTF-8"?>
<svg width="24px" height="24px" viewBox="0 0 24 24" version="1.1" 
    xmlns="http://www.w3.org/2000/svg" 
    xmlns:xlink="http://www.w3.org/1999/xlink">
    <!-- Generator: Sketch 61 (89581) - https://sketch.com -->
    <title>Icons / Interface / GPU</title>
    <desc>Created with Sketch.</desc>
    <g id="Icons-/-Interface-/-GPU" stroke="none" stroke-width="1">
        <path d="M4.5,3.5 C4.96000161,3.5 5.33333333,3.87333172 5.33333333,4.33333333 L5.33333333,4.33333333 L5.33333333,5.16666667 L21.1666667,5.16666667 C21.6266683,5.16666667 22,5.53999839 22,6 L22,6 L22,17.6666667 C22,18.1266683 21.6266683,18.5 21.1666667,18.5 L21.1666667,18.5 L19.9166667,18.5 L19.9166667,19.3333333 C19.9166667,19.7933349 19.5433349,20.1666667 19.0833333,20.1666667 C18.6233317,20.1666667 18.25,19.7933349 18.25,19.3333333 L18.25,19.3333333 L18.25,18.5 L17.4166667,18.5 L17.4166667,19.3333333 C17.4166667,19.7933349 17.0433349,20.1666667 16.5833333,20.1666667 C16.1233317,20.1666667 15.75,19.7933349 15.75,19.3333333 L15.75,19.3333333 L15.75,18.5 L14.9166667,18.5 L14.9166667,19.3333333 C14.9166667,19.7933349 14.5433349,20.1666667 14.0833333,20.1666667 C13.6233317,20.1666667 13.25,19.7933349 13.25,19.3333333 L13.25,19.3333333 L13.25,18.5 L12.8333333,18.5 C12.3733317,18.5 12,18.1266683 12,17.6666667 C12,17.2066651 12.3733317,16.8333333 12.8333333,16.8333333 L12.8333333,16.8333333 L20.3333333,16.8333333 L20.3333333,6.83333333 L5.33333333,6.83333333 L5.33333333,16.8333333 L9.5,16.8333333 C9.96000161,16.8333333 10.3333333,17.2066651 10.3333333,17.6666667 C10.3333333,18.1266683 9.96000161,18.5 9.5,18.5 L9.5,18.5 L9.5,19.3333333 C9.5,19.7933349 9.12666828,20.1666667 8.66666667,20.1666667 C8.20666505,20.1666667 7.83333333,19.7933349 7.83333333,19.3333333 L7.83333333,19.3333333 L7.83333333,18.5 L7,18.5 L7,19.3333333 C7,19.7933349 6.62666828,20.1666667 6.16666667,20.1666667 C5.70666505,20.1666667 5.33333333,19.7933349 5.33333333,19.3333333 L5.33333333,19.3333333 L5.33333333,18.5 L4.5,18.5 C4.03999839,18.5 3.66666667,18.1266683 3.66666667,17.6666667 L3.66666667,17.6666667 L3.66666667,5.16666667 L2.83333333,5.16666667 C2.37333172,5.16666667 2,4.79333495 2,4.33333333 C2,3.87333172 2.37333172,3.5 2.83333333,3.5 L2.83333333,3.5 Z M14.5,7.66666667 C14.9600016,7.66666667 15.3333333,8.03999839 15.3333333,8.5 L15.3333333,8.5 L15.3333333,9.33333333 L16.1666667,9.33333333 C16.6266683,9.33333333 17,9.70666505 17,10.1666667 L17,10.1666667 L17,11 L17.8333333,11 C18.2933349,11 18.6666667,11.3733317 18.6666667,11.8333333 C18.6666667,12.2933349 18.2933349,12.6666667 17.8333333,12.6666667 L17.8333333,12.6666667 L17,12.6666667 L17,13.5 C17,13.9600016 16.6266683,14.3333333 16.1666667,14.3333333 L16.1666667,14.3333333 L15.3333333,14.3333333 L15.3333333,15.1666667 C15.3333333,15.6266683 14.9600016,16 14.5,16 C14.0399984,16 13.6666667,15.6266683 13.6666667,15.1666667 L13.6666667,15.1666667 L13.6666667,14.3333333 L12.8333333,14.3333333 C12.3733317,14.3333333 12,13.9600016 12,13.5 L12,13.5 L12,12.6666667 L11.1666667,12.6666667 C10.7066651,12.6666667 10.3333333,12.2933349 10.3333333,11.8333333 C10.3333333,11.3733317 10.7066651,11 11.1666667,11 L11.1666667,11 L12,11 L12,10.1666667 C12,9.70666505 12.3733317,9.33333333 12.8333333,9.33333333 L12.8333333,9.33333333 L13.6666667,9.33333333 L13.6666667,8.5 C13.6666667,8.03999839 14.0399984,7.66666667 14.5,7.66666667 Z M15.3333333,11 L13.6666667,11 L13.6666667,12.6666667 L15.3333333,12.6666667 L15.3333333,11 Z M8.66666667,10.1666667 C9.12666828,10.1666667 9.5,10.5399984 9.5,11 C9.5,11.4600016 9.12666828,11.8333333 8.66666667,11.8333333 L8.66666667,11.8333333 L7,11.8333333 C6.53999839,11.8333333 6.16666667,11.4600016 6.16666667,11 C6.16666667,10.5399984 6.53999839,10.1666667 7,10.1666667 L7,10.1666667 Z M8.66666667,7.66666667 C9.12666828,7.66666667 9.5,8.03999839 9.5,8.5 C9.5,8.96000161 9.12666828,9.33333333 8.66666667,9.33333333 L8.66666667,9.33333333 L7,9.33333333 C6.53999839,9.33333333 6.16666667,8.96000161 6.16666667,8.5 C6.16666667,8.03999839 6.53999839,7.66666667 7,7.66666667 L7,7.66666667 Z" id="Combined-Shape"></path>
    </g>
</svg>