<?xml version="1.0" encoding="UTF-8"?>
<svg width="24px" height="24px" viewBox="0 0 24 24" version="1.1" xmlns="http://www.w3.org/2000/svg" xmlns:xlink="http://www.w3.org/1999/xlink">
    <!-- Generator: Sketch 61 (89581) - https://sketch.com -->
    <title>Icons / Interface / Grid view</title>
    <desc>Created with Sketch.</desc>
    <g id="Icons-/-Interface-/-Grid-view" stroke="none" stroke-width="1" fill="none" fill-rule="evenodd">
        <path d="M8.54895105,15.951049 L8.54895105,19.5 L5,19.5 L5,15.951049 L8.54895105,15.951049 Z M14.0244755,15.951049 L14.0244755,19.5 L10.4755245,19.5 L10.4755245,15.951049 L14.0244755,15.951049 Z M19.5,15.951049 L19.5,19.5 L15.951049,19.5 L15.951049,15.951049 L19.5,15.951049 Z M8.54895105,10.4755245 L8.54895105,14.0244755 L5,14.0244755 L5,10.4755245 L8.54895105,10.4755245 Z M14.0244755,10.4755245 L14.0244755,14.0244755 L10.4755245,14.0244755 L10.4755245,10.4755245 L14.0244755,10.4755245 Z M19.5,10.4755245 L19.5,14.0244755 L15.951049,14.0244755 L15.951049,10.4755245 L19.5,10.4755245 Z M8.54895105,5 L8.54895105,8.54895105 L5,8.54895105 L5,5 L8.54895105,5 Z M14.0244755,5 L14.0244755,8.54895105 L10.4755245,8.54895105 L10.4755245,5 L14.0244755,5 Z M19.5,5 L19.5,8.54895105 L15.951049,8.54895105 L15.951049,5 L19.5,5 Z" id="Icons-/-Grid-" fill="#3DC0EF"></path>
    </g>
</svg>