<?xml version="1.0" encoding="UTF-8"?>
<svg width="24px" height="24px" viewBox="0 0 24 24" version="1.1" xmlns="http://www.w3.org/2000/svg" xmlns:xlink="http://www.w3.org/1999/xlink">
    <!-- Generator: Sketch 61 (89581) - https://sketch.com -->
    <title>Icons / Interface / Info</title>
    <desc>Created with Sketch.</desc>
    <g id="Icons-/-Interface-/-Info" stroke="none" stroke-width="1" fill="none" fill-rule="evenodd">
        <path d="M12,2.83333333 C6.94,2.83333333 2.83333333,6.94 2.83333333,12 C2.83333333,17.06 6.94,21.1666667 12,21.1666667 C17.06,21.1666667 21.1666667,17.06 21.1666667,12 C21.1666667,6.94 17.06,2.83333333 12,2.83333333 Z M12,16.5833333 C11.4958333,16.5833333 11.0833333,16.1708333 11.0833333,15.6666667 L11.0833333,12 C11.0833333,11.4958333 11.4958333,11.0833333 12,11.0833333 C12.5041667,11.0833333 12.9166667,11.4958333 12.9166667,12 L12.9166667,15.6666667 C12.9166667,16.1708333 12.5041667,16.5833333 12,16.5833333 Z M12.9166667,9.25 L11.0833333,9.25 L11.0833333,7.41666667 L12.9166667,7.41666667 L12.9166667,9.25 Z" id="Shape" fill="#3DC0EF"></path>
    </g>
</svg>