<?xml version="1.0" encoding="UTF-8"?>
<svg width="24px" height="24px" viewBox="0 0 24 24" version="1.1" xmlns="http://www.w3.org/2000/svg" xmlns:xlink="http://www.w3.org/1999/xlink">
    <!-- Generator: Sketch 61 (89581) - https://sketch.com -->
    <title>Icons / Interface / List view</title>
    <desc>Created with Sketch.</desc>
    <g id="Icons-/-Interface-/-List-view" stroke="none" stroke-width="1" fill="none" fill-rule="evenodd">
        <path d="M3,5 L3,19.5640547 L21,19.5640547 L21,5 L3,5 Z M7.23529412,7.08057924 L7.23529412,9.16115849 L5.11764706,9.16115849 L5.11764706,7.08057924 L7.23529412,7.08057924 Z M5.11764706,13.322317 L5.11764706,11.2417377 L7.23529412,11.2417377 L7.23529412,13.322317 L5.11764706,13.322317 Z M5.11764706,15.4028962 L7.23529412,15.4028962 L7.23529412,17.4834755 L5.11764706,17.4834755 L5.11764706,15.4028962 Z M18.8823529,17.4834755 L9.35294118,17.4834755 L9.35294118,15.4028962 L18.8823529,15.4028962 L18.8823529,17.4834755 Z M18.8823529,13.322317 L9.35294118,13.322317 L9.35294118,11.2417377 L18.8823529,11.2417377 L18.8823529,13.322317 Z M18.8823529,9.16115849 L9.35294118,9.16115849 L9.35294118,7.08057924 L18.8823529,7.08057924 L18.8823529,9.16115849 Z" id="Icons-/-List" fill="#3DC0EF"></path>
    </g>
</svg>