<?xml version="1.0" encoding="UTF-8"?>
<svg width="24px" height="24px" viewBox="0 0 24 24" version="1.1" xmlns="http://www.w3.org/2000/svg" xmlns:xlink="http://www.w3.org/1999/xlink">
    <!-- Generator: Sketch 61 (89581) - https://sketch.com -->
    <title>Icons / Interface / Notifications</title>
    <desc>Created with Sketch.</desc>
    <g id="Icons-/-Interface-/-Notifications" stroke="none" stroke-width="1" fill="none" fill-rule="evenodd">
        <g id="Group" transform="translate(1.000000, 1.000000)">
            <path d="M5.46692308,19.4615385 C5.84786066,20.5110934 6.84499063,21.2099601 7.96153846,21.2099601 C9.0780863,21.2099601 10.0752163,20.5110934 10.4561538,19.4615385 L5.46692308,19.4615385 Z M15.0384615,15.0384615 C14.549902,15.0384615 14.1538462,14.6424057 14.1538462,14.1538462 L14.1538462,11.5 C14.1545489,8.76093205 12.3556588,6.34682155 9.73076923,5.56423077 C9.7351227,5.47877336 9.7351227,5.39314972 9.73076923,5.30769231 C9.73076923,4.33057313 8.93865763,3.53846154 7.96153846,3.53846154 C6.98441929,3.53846154 6.19230769,4.33057313 6.19230769,5.30769231 C6.18795422,5.39314972 6.18795422,5.47877336 6.19230769,5.56423077 C3.56741809,6.34682155 1.768528,8.76093205 1.76923077,11.5 L1.76923077,14.1538462 C1.76923077,14.6424057 1.37317497,15.0384615 0.884615385,15.0384615 C0.396055798,15.0384615 1.04805054e-13,15.4345173 1.04805054e-13,15.9230769 L1.04805054e-13,18.5769231 L15.9230769,18.5769231 L15.9230769,15.9230769 C15.9230769,15.4345173 15.5270211,15.0384615 15.0384615,15.0384615 Z" id="ic-notif" fill="#1F263E"></path>
            <circle id="bg" fill="#3DC0EF" cx="15.4807692" cy="7.51923077" r="7.51923077"></circle>
            <text id="5" font-family="NunitoSans-SemiBold, Nunito Sans" font-size="12" font-weight="500" line-spacing="10" fill="#FFFFFF">
                <tspan x="11.5232794" y="15.1659919">5</tspan>
            </text>
        </g>
    </g>
</svg>