<?xml version="1.0" encoding="UTF-8"?>
<svg width="24px" height="24px" viewBox="0 0 24 24" version="1.1" xmlns="http://www.w3.org/2000/svg" xmlns:xlink="http://www.w3.org/1999/xlink">
    <!-- Generator: Sketch 61 (89581) - https://sketch.com -->
    <title>Icons / Interface / Planet</title>
    <desc>Created with Sketch.</desc>
    <g id="Icons-/-Interface-/-Planet" stroke="none" stroke-width="1" fill="none" fill-rule="evenodd">
        <path d="M20.3479268,12.0816914 C20.3484718,12.0462446 20.350652,12.0111523 20.350652,11.9755282 C20.350652,9.79679116 19.4498827,7.82027803 17.9935361,6.37954316 C17.9720978,6.35118572 17.947026,6.32743637 17.9195923,6.30705447 C16.4419892,4.88173896 14.4126239,4 12.1754168,4 C9.93657459,4 7.90557424,4.88315683 6.42760771,6.31024468 C6.404171,6.32814531 6.38291444,6.34870445 6.36383805,6.37263103 C4.90367615,7.8138976 4,9.79342371 4,11.9755282 C4,12.0134563 4.00236184,12.0508527 4.00290688,12.0886035 C4.00236184,12.0967563 4.00036336,12.1045546 4.00036336,12.1128846 C4.00036336,12.126886 4.00290688,12.1400014 4.004542,12.1534711 C4.05232383,14.2591878 4.93910375,16.1662252 6.35330061,17.5670825 C6.37619228,17.5984529 6.40398932,17.624329 6.43414819,17.646306 C7.911388,19.069672 9.93929979,19.9503475 12.1745084,19.9505248 C12.1745084,19.9505248 12.1746901,19.9505248 12.1746901,19.9505248 C12.1746901,19.9505248 12.1746901,19.9505248 12.1748718,19.9505248 C12.1750535,19.9505248 12.1752351,19.9505248 12.1754168,19.9505248 C12.1754168,19.9505248 12.1755985,19.9505248 12.1755985,19.9505248 C12.1755985,19.9505248 12.1755985,19.9505248 12.1755985,19.9505248 C12.1755985,19.9505248 12.1755985,19.9505248 12.1755985,19.9505248 C14.4124422,19.9505248 16.4414441,19.068963 17.9190473,17.6441792 C17.9473894,17.6232656 17.9733696,17.5989846 17.9951712,17.5695637 C19.4080963,16.1710106 20.2950579,14.2675178 20.3457466,12.1651686 C20.3482901,12.1479769 20.351197,12.1307852 20.351197,12.1130618 C20.351197,12.1022505 20.3488352,12.0921482 20.3479268,12.0816914 Z M10.9703336,4.82006154 C10.6502135,5.10700332 10.2848551,5.47618166 9.91858827,5.93610379 C9.61754457,6.31432106 9.29815119,6.78026914 9.0032846,7.33288463 C8.39356663,7.12995175 7.81273578,6.86569591 7.26315388,6.53869925 C8.28837393,5.6564286 9.56322226,5.0447942 10.9703336,4.82006154 Z M6.7133903,7.06242561 C7.33364571,7.44808671 7.99096383,7.75930954 8.68243778,7.99609411 C8.24113714,9.00827726 7.91265976,10.2584856 7.88195585,11.7509728 L4.7472497,11.7509728 C4.80393385,9.94549045 5.53882932,8.30412674 6.7133903,7.06242561 Z M4.76105738,12.4740874 L7.88867801,12.4740874 C7.9513576,13.8465872 8.26838914,15.0044566 8.68243778,15.9544307 C7.99096383,16.191038 7.33346403,16.5022608 6.71320862,16.8880992 C5.59860203,15.7098478 4.87987608,14.1712798 4.76105738,12.4740874 Z M7.2629722,17.4118255 C7.8125541,17.0850061 8.39338495,16.820573 9.0032846,16.6176401 C9.29815119,17.1702556 9.61754457,17.6362037 9.91876995,18.014421 C10.2852184,18.4745203 10.6507585,18.8440532 10.9710603,19.1309949 C9.56340394,18.9062623 8.28819225,18.2946279 7.2629722,17.4118255 Z M11.8047897,18.8782593 C11.4479702,18.5930899 10.9647015,18.1530179 10.484158,17.5451055 C10.1981937,17.1830165 9.94620363,16.803913 9.72546247,16.4097447 C10.3884127,16.2477529 11.0820668,16.1545278 11.8047897,16.1307784 L11.8047897,18.8782593 Z M11.8047897,15.4016379 C10.9632481,15.4273369 10.1573158,15.5416528 9.38953621,15.7419271 C8.94096837,14.7407325 8.68734314,13.6484396 8.63156739,12.4742646 L11.804608,12.4742646 L11.804608,15.4016379 L11.8047897,15.4016379 Z M11.8047897,11.7509728 L8.62266507,11.7509728 C8.64955371,10.4722298 8.9062675,9.28759799 9.38953621,8.20877487 C10.1573158,8.40904924 10.9630664,8.52336515 11.804608,8.54906407 L11.804608,11.7509728 L11.8047897,11.7509728 Z M11.8047897,7.81974632 C11.0822485,7.79599697 10.3884127,7.70294914 9.72564415,7.5409573 C9.94620363,7.14678897 10.1981937,6.76768553 10.4839763,6.40559655 C10.9645198,5.79750683 11.4477886,5.35743491 11.804608,5.0724427 L11.804608,7.81974632 L11.8047897,7.81974632 Z M17.0878614,6.53887649 C16.5382795,6.86569591 15.957267,7.13012898 15.347549,7.33288463 C15.0526825,6.78026914 14.7332891,6.31432106 14.4320637,5.93610379 C14.0659786,5.47635889 13.7008018,5.10700332 13.3806817,4.82006154 C14.7877931,5.04497143 16.0628231,5.6564286 17.0878614,6.53887649 Z M12.546044,5.07067036 C12.8965046,5.35052278 13.370326,5.78191024 13.8465092,6.38007486 C14.1008611,6.69927322 14.3690207,7.0874156 14.6213742,7.54184347 C13.9596958,7.70330361 13.2671317,7.79599697 12.546044,7.81974632 L12.546044,5.07067036 Z M12.546044,8.54906407 C13.3855871,8.52354238 14.1897026,8.40975818 14.955847,8.21019274 C15.378253,9.15679932 15.6963746,10.3354052 15.7276235,11.7509728 L12.546044,11.7509728 L12.546044,8.54906407 Z M12.546044,12.4740874 L15.7198113,12.4740874 C15.6642172,13.6484396 15.4104103,14.7407325 14.9616608,15.7419271 C14.1936996,15.5414755 13.3875856,15.4271596 12.546044,15.4014607 L12.546044,12.4740874 L12.546044,12.4740874 Z M12.546044,18.8784365 L12.546044,16.1307784 C13.2687669,16.1545278 13.9627843,16.2477529 14.6257345,16.4097447 C14.4049934,16.803913 14.1531849,17.1830165 13.867039,17.5451055 C13.3863138,18.1531952 12.9026817,18.5934443 12.546044,18.8784365 Z M13.3801367,19.1308177 C13.7004385,18.8438759 14.0657969,18.4743431 14.4320637,18.0142437 C14.7331074,17.6362037 15.0525008,17.1700784 15.347549,16.6174629 C15.9574487,16.8203958 16.5382795,17.0848289 17.0878614,17.4118255 C16.0626414,18.2946279 14.7874297,18.906085 13.3801367,19.1308177 Z M17.637625,16.8882764 C17.0173696,16.5026153 16.3598698,16.1913925 15.6682142,15.9547851 C16.0824445,15.0048111 16.3992944,13.8467644 16.4621556,12.4742646 L19.5899579,12.4742646 C19.4711392,14.1712798 18.7522316,15.7098478 17.637625,16.8882764 Z M16.4686961,11.7509728 C16.4379922,10.2584856 16.1095148,9.00827726 15.6682142,7.99609411 C16.3596881,7.75948678 17.0170063,7.44826394 17.6374433,7.06242561 C18.8118226,8.30412674 19.5468998,9.94531322 19.6035839,11.7509728 L16.4686961,11.7509728 Z" id="Icons-/-Planet" fill="#1F263E"></path>
    </g>
</svg>