<?xml version="1.0" encoding="UTF-8"?>
<svg width="24px" height="24px" viewBox="0 0 24 24" version="1.1" xmlns="http://www.w3.org/2000/svg" xmlns:xlink="http://www.w3.org/1999/xlink">
    <!-- Generator: Sketch 61 (89581) - https://sketch.com -->
    <title>Icons / Interface / Resolution</title>
    <desc>Created with Sketch.</desc>
    <g id="Icons-/-Interface-/-Resolution" stroke="none" stroke-width="1" fill="none" fill-rule="evenodd">
        <path d="M19.65625,19.4101562 L4.34375,19.4101562 C3.05133055,19.4101562 2,18.3588257 2,17.0664062 L2,6.36328125 C2,5.0708618 3.05133055,4.01953125 4.34375,4.01953125 L19.65625,4.01953125 C20.9486695,4.01953125 22,5.0708618 22,6.36328125 L22,17.0664062 C22,18.3588257 20.9486695,19.4101562 19.65625,19.4101562 Z M4.34375,5.58203125 C3.91299438,5.58203125 3.5625,5.93252563 3.5625,6.36328125 L3.5625,17.0664062 C3.5625,17.4971619 3.91299438,17.8476562 4.34375,17.8476562 L19.65625,17.8476562 C20.0870056,17.8476562 20.4375,17.4971619 20.4375,17.0664062 L20.4375,6.36328125 C20.4375,5.93252563 20.0870056,5.58203125 19.65625,5.58203125 L4.34375,5.58203125 Z M18.875,7.18359375 L14.890625,7.18359375 L14.890625,8.74609375 L17.3125,8.74609375 L17.3125,11.2070312 L18.875,11.2070312 L18.875,7.18359375 Z M9.0703125,14.6835938 L6.6875,14.6835938 L6.6875,12.2226562 L5.125,12.2226562 L5.125,16.2460938 L9.0703125,16.2460938 L9.0703125,14.6835938 Z" id="Shape" fill="#3DC0EF"></path>
    </g>
</svg>