<?xml version="1.0" encoding="UTF-8"?>
<svg width="24px" height="24px" viewBox="0 0 24 24" version="1.1" xmlns="http://www.w3.org/2000/svg" xmlns:xlink="http://www.w3.org/1999/xlink">
    <!-- Generator: Sketch 61 (89581) - https://sketch.com -->
    <title>Icons / Interface / Screenshot 2</title>
    <desc>Created with Sketch.</desc>
    <g id="Icons-/-Interface-/-Screenshot-2" stroke="none" stroke-width="1" fill="none" fill-rule="evenodd">
        <path d="M2,18.3952227 L2,14.7904451 L3.04234515,14.7904451 L4.0846903,14.7904451 L4.0846903,17.352877 L4.0846903,19.9153094 L6.65798,19.9153094 L9.2312703,19.9153094 L9.2312703,20.9576546 L9.2312703,22.0000004 L5.61563484,22.0000004 L2,22.0000004 L2,18.3952227 Z M14.7904449,20.9576546 L14.7904449,19.9153094 L17.3528772,19.9153094 L19.9153094,19.9153094 L19.9153094,17.352877 L19.9153094,14.7904451 L20.9576547,14.7904451 L22,14.7904451 L22,18.3952227 L22,22.0000004 L18.3952225,22.0000004 L14.7904449,22.0000004 L14.7904449,20.9576546 Z M8.25407153,14.3995656 L8.25407153,13.053203 L8.64472513,13.053203 L9.03537873,13.053203 L9.04103571,14.0141147 L9.04669269,14.975027 L10.0076044,14.980684 L10.9685167,14.986341 L10.9685167,15.3661368 L10.9685167,15.7459325 L9.61129629,15.7459325 L8.25407153,15.7459325 L8.25407153,14.3995656 Z M13.0532027,15.3661324 L13.0532027,14.9863367 L14.0141151,14.9806797 L14.9750268,14.9750227 L14.9806838,14.0141104 L14.9863407,13.0531987 L15.3661365,13.0531987 L15.7459329,13.0531987 L15.7459329,14.3995613 L15.7459329,15.7459239 L14.3995697,15.7459239 L13.0532027,15.7459239 L13.0532027,15.3661324 Z M8.25407153,9.61129186 L8.25407153,8.25407153 L9.61129198,8.25407153 L10.9685124,8.25407153 L10.9685124,8.64495092 L10.9685124,9.03583042 L10.0021715,9.03583042 L9.03583055,9.03583042 L9.03583055,10.0021714 L9.03583055,10.9685123 L8.64495104,10.9685123 L8.25407153,10.9685123 L8.25407153,9.61129186 Z M14.9806819,10.0076002 L14.9750249,9.0466882 L14.0141132,9.04103368 L13.0532009,9.03537916 L13.0532009,8.6447255 L13.0532009,8.25407215 L14.3995635,8.25407215 L15.7459267,8.25407215 L15.7459267,9.61129229 L15.7459267,10.9685127 L15.3661304,10.9685127 L14.9863346,10.9685127 L14.9806819,10.0076002 Z M2,5.61563484 L2,2 L5.61563484,2 L9.2312703,2 L9.2312703,3.04234515 L9.2312703,4.0846903 L6.65798,4.0846903 L4.0846903,4.0846903 L4.0846903,6.65798 L4.0846903,9.23127012 L3.04234515,9.23127012 L2,9.23127012 L2,5.61563484 Z M19.9153094,6.65798 L19.9153094,4.0846903 L17.3528772,4.0846903 L14.7904449,4.0846903 L14.7904449,3.04234515 L14.7904449,2 L18.3952225,2 L22,2 L22,5.61563484 L22,9.23127012 L20.9576547,9.23127012 L19.9153094,9.23127012 L19.9153094,6.65798 Z" id="Shape" fill="#3DC0EF"></path>
    </g>
</svg>