<?xml version="1.0" encoding="UTF-8"?>
<svg width="24px" height="24px" viewBox="0 0 24 24" version="1.1" xmlns="http://www.w3.org/2000/svg" xmlns:xlink="http://www.w3.org/1999/xlink">
    <!-- Generator: Sketch 61 (89581) - https://sketch.com -->
    <title>Icons / Interface / Search</title>
    <desc>Created with Sketch.</desc>
    <defs>
        <path d="M10.8016028,5 C14.0057395,5 16.6032055,7.59746604 16.6032055,10.8016028 C16.6032055,12.1374827 16.1517005,13.367908 15.3929669,14.348602 L18.4418555,17.4504842 C18.7413204,17.7551746 18.7370842,18.2449391 18.4323938,18.544404 C18.1277035,18.8438688 17.6379389,18.8396327 17.338474,18.5349423 L17.338474,18.5349423 L14.2919778,15.4362243 C13.3207361,16.1688304 12.1118963,16.6032055 10.8016028,16.6032055 C7.59746604,16.6032055 5,14.0057395 5,10.8016028 C5,7.59746604 7.59746604,5 10.8016028,5 Z M10.8016028,6.54709407 C8.4519025,6.54709407 6.54709407,8.4519025 6.54709407,10.8016028 C6.54709407,13.151303 8.4519025,15.0561115 10.8016028,15.0561115 C13.151303,15.0561115 15.0561115,13.151303 15.0561115,10.8016028 C15.0561115,8.4519025 13.151303,6.54709407 10.8016028,6.54709407 Z" id="path-1"></path>
    </defs>
    <g id="Icons-/-Interface-/-Search" stroke="none" stroke-width="1" fill="none" fill-rule="evenodd">
        <mask id="mask-2" fill="white">
            <use xlink:href="#path-1"></use>
        </mask>
        <use id="Combined-Shape" fill="#3DC0EF" xlink:href="#path-1"></use>
    </g>
</svg>