<?xml version="1.0" encoding="UTF-8"?>
<svg width="24px" height="24px" viewBox="0 0 24 24" version="1.1" xmlns="http://www.w3.org/2000/svg" xmlns:xlink="http://www.w3.org/1999/xlink">
    <!-- Generator: Sketch 61 (89581) - https://sketch.com -->
    <title>Icons / Interface / Settings</title>
    <desc>Created with Sketch.</desc>
    <g id="Icons-/-Interface-/-Settings" stroke="none" stroke-width="1">
        <path d="M17.6311906,12.7223953 C17.6629662,12.4681907 17.6867979,12.2139861 17.6867979,11.9438937 C17.6867979,11.6738013 17.6629662,11.4195967 17.6311906,11.1653921 L19.3073522,9.85464966 C19.4582862,9.73549125 19.4980056,9.52100612 19.4026789,9.34624046 L17.8139002,6.59765324 C17.7185735,6.42288758 17.5040883,6.35933643 17.3293227,6.42288758 L15.3512931,7.21727695 C14.9382107,6.8995212 14.4933526,6.63737271 14.0087751,6.43877537 L13.7069071,4.33364354 C13.6830755,4.14299009 13.5162537,4 13.3176563,4 L10.1400989,4 C9.94150152,4 9.77467975,4.14299009 9.75084807,4.33364354 L9.44898011,6.43877537 C8.9644026,6.63737271 8.51954455,6.90746509 8.10646208,7.21727695 L6.12843254,6.42288758 C5.94572299,6.35139254 5.73918175,6.42288758 5.64385503,6.59765324 L4.05507629,9.34624046 C3.95180567,9.52100612 3.99946903,9.73549125 4.15040301,9.85464966 L5.82656458,11.1653921 C5.79478901,11.4195967 5.77095733,11.6817452 5.77095733,11.9438937 C5.77095733,12.2060422 5.79478901,12.4681907 5.82656458,12.7223953 L4.15040301,14.0331377 C3.99946903,14.1522961 3.95974956,14.3667813 4.05507629,14.5415469 L5.64385503,17.2901342 C5.73918175,17.4648998 5.95366688,17.528451 6.12843254,17.4648998 L8.10646208,16.6705105 C8.51954455,16.9882662 8.9644026,17.2504147 9.44898011,17.449012 L9.75084807,19.5541439 C9.77467975,19.7447973 9.94150152,19.8877874 10.1400989,19.8877874 L13.3176563,19.8877874 C13.5162537,19.8877874 13.6830755,19.7447973 13.7069071,19.5541439 L14.0087751,17.449012 C14.4933526,17.2504147 14.9382107,16.9803223 15.3512931,16.6705105 L17.3293227,17.4648998 C17.5120322,17.5363949 17.7185735,17.4648998 17.8139002,17.2901342 L19.4026789,14.5415469 C19.4980056,14.3667813 19.4582862,14.1522961 19.3073522,14.0331377 L17.6311906,12.7223953 L17.6311906,12.7223953 Z M11.7288776,14.7242565 C10.1957061,14.7242565 8.94851481,13.4770652 8.94851481,11.9438937 C8.94851481,10.4107222 10.1957061,9.16353091 11.7288776,9.16353091 C13.2620491,9.16353091 14.5092404,10.4107222 14.5092404,11.9438937 C14.5092404,13.4770652 13.2620491,14.7242565 11.7288776,14.7242565 L11.7288776,14.7242565 Z" id="Shape"></path>
    </g>
</svg>