<?xml version="1.0" encoding="UTF-8"?>
<svg width="24px" height="24px" viewBox="0 0 24 24" version="1.1" xmlns="http://www.w3.org/2000/svg" xmlns:xlink="http://www.w3.org/1999/xlink">
    <!-- Generator: Sketch 61 (89581) - https://sketch.com -->
    <title>Icons / Interface / Sort up</title>
    <desc>Created with Sketch.</desc>
    <g id="Icons-/-Interface-/-Sort-up" stroke="none" stroke-width="1" fill="none" fill-rule="evenodd">
        <path d="M19.1006181,9.51598524 L19.1255937,9.5215763 L8.41912447,9.5215763 L11.7848473,6.06962599 C11.9496603,5.90109531 12.0400668,5.67279348 12.0400668,5.43317639 C12.0400668,5.19355931 11.9496603,4.96685493 11.7848473,4.79792488 L11.2611401,4.2617151 C11.0964572,4.09318442 10.8770101,4 10.6429939,4 C10.4088476,4 10.1892704,4.09251882 10.0245875,4.2610495 L4.25509286,10.1648151 C4.08975956,10.3340113 3.99935308,10.5593845 4,10.7991347 C3.99935308,11.0402161 4.08975956,11.2657224 4.25509286,11.4346525 L10.0245875,17.3389505 C10.1892704,17.5073481 10.4087175,17.6 10.6429939,17.6 C10.8770101,17.6 11.0964572,17.5072149 11.2611401,17.3389505 L11.7848473,16.8027407 C11.9496603,16.6344763 12.0400668,16.4097687 12.0400668,16.1701516 C12.0400668,15.9306677 11.9496603,15.7178078 11.7848473,15.5494103 L8.38114074,12.0781575 L19.1125856,12.0781575 C19.5947968,12.0781575 20,11.6528371 20,11.1596253 L20,10.4012372 C20,9.90802541 19.5828294,9.51598524 19.1006181,9.51598524 Z" id="Path" fill="#3DC0EF" transform="translate(12.000000, 10.800000) rotate(90.000000) translate(-12.000000, -10.800000) "></path>
    </g>
</svg>