<?xml version="1.0" encoding="UTF-8"?>
<svg width="24px" height="24px" viewBox="0 0 24 24" version="1.1" xmlns="http://www.w3.org/2000/svg" xmlns:xlink="http://www.w3.org/1999/xlink">
    <!-- Generator: Sketch 61 (89581) - https://sketch.com -->
    <title>Icons / Interface / Subdirectory open</title>
    <desc>Created with Sketch.</desc>
    <g id="Icons-/-Interface-/-Subdirectory-open" stroke="none" stroke-width="1" fill="none" fill-rule="evenodd">
        <path d="M14.5836347,14.4958798 L7.88498748,14.4958798 C7.6502888,14.4958798 7.42514799,14.4027792 7.25912433,14.2367555 C7.09310068,14.0707318 7,13.845591 7,13.6108924 C7,11.6065727 7,6.89348336 7,6.88498748 C7,6.6502888 7.09310068,6.42514799 7.25912433,6.25912433 C7.42514799,6.09310068 7.6502888,6 7.88498748,6 C8.11968616,6 8.34482698,6.09310068 8.51085063,6.25912433 C8.67687428,6.42514799 8.76997497,6.6502888 8.76997497,6.88498748 L8.76997497,12.7259049 L14.5836347,12.7259049 L12.9740195,11.1162896 L12.9740195,11.1162896 C12.8122438,10.950974 12.7216211,10.7290191 12.7216211,10.4975064 C12.7216211,10.2628077 12.8150758,10.0376669 12.9810994,9.87164324 C13.1471231,9.70561959 13.3719099,9.61251891 13.6066086,9.61251891 C13.8381213,9.61251891 14.0600761,9.70314162 14.2253918,9.86456334 L14.2253918,9.86456334 L17.3458577,12.9850292 C17.5118813,13.1510529 17.605336,13.3761937 17.605336,13.6108924 C17.605336,13.845591 17.5118813,14.0707318 17.3458577,14.2367555 C17.0329261,14.5496871 16.7203485,14.8626186 16.7203485,14.8626186 L14.2253918,17.3572214 L14.2253918,17.3572214 C14.0600761,17.5186431 13.8381213,17.6092658 13.6066086,17.6092658 C13.3719099,17.6092658 13.1471231,17.5161651 12.9810994,17.3501415 C12.8150758,17.1841178 12.7216211,16.958977 12.7216211,16.7242783 C12.7216211,16.4927656 12.8122438,16.2708107 12.9740195,16.1054951 L12.9740195,16.1054951 L14.5836347,14.4958798 Z" id="Path" fill="#3DC0EF" transform="translate(12.302668, 11.804633) scale(1, -1) rotate(-90.000000) translate(-12.302668, -11.804633) "></path>
    </g>
</svg>