<?xml version="1.0" encoding="UTF-8"?>
<svg width="24px" height="24px" viewBox="0 0 24 24" version="1.1" xmlns="http://www.w3.org/2000/svg" xmlns:xlink="http://www.w3.org/1999/xlink">
    <!-- Generator: Sketch 61 (89581) - https://sketch.com -->
    <title>Icons / Interface / Trash</title>
    <desc>Created with Sketch.</desc>
    <defs>
        <path d="M17.0852867,6.38616071 L13.8795528,6.38616071 L13.8795528,5.92410714 C13.8795528,5.41373686 13.5082059,5 13.0501262,5 L10.4789037,5 C10.0534897,5.04763031 9.73027715,5.44775018 9.73241976,5.92410714 L9.73241976,6.38616071 L6.41471331,6.38616071 C6.18567347,6.38616071 6,6.59302914 6,6.84821429 C6,7.10339943 6.18567347,7.31026786 6.41471331,7.31026786 L17.0852867,7.31026786 C17.3143265,7.31026786 17.5,7.10339943 17.5,6.84821429 C17.5,6.59302914 17.3143265,6.38616071 17.0852867,6.38616071 Z M6.82942661,8.234375 L6.82942661,18.3995536 C6.82163475,18.7586371 6.9422402,19.1064521 7.16469283,19.3664305 C7.38714545,19.6264088 7.69320908,19.7772379 8.01550667,19.7857143 L15.5757303,19.7857143 C15.9016499,19.7833394 16.2130503,19.635185 16.4399793,19.3745321 C16.6669083,19.1138791 16.7903396,18.7625815 16.782546,18.3995536 L16.782546,8.234375 L6.82942661,8.234375 Z M10.5618464,17.4754464 L9.73241976,17.4754464 L9.73241976,10.5446429 L10.5618464,10.5446429 L10.5618464,17.4754464 Z M13.8795528,17.4754464 L13.0501262,17.4754464 L13.0501262,10.5446429 L13.8795528,10.5446429 L13.8795528,17.4754464 Z" id="path-1"></path>
    </defs>
    <g id="Icons-/-Interface-/-Trash" stroke="none" stroke-width="1" fill="none" fill-rule="evenodd">
        <mask id="mask-2" fill="white">
            <use xlink:href="#path-1"></use>
        </mask>
        <use id="Icons-/-Remove" fill="#3DC0EF" xlink:href="#path-1"></use>
    </g>
</svg>