<svg width="15px" height="4px" viewBox="0 0 15 4" version="1.1">
    <g id="MOCKUP-CLOUDBEAT" stroke="none" stroke-width="1" >
        <g id="01-—-CloudBeat-—-Devices-List-" transform="translate(-402.000000, -265.000000)">
            <path d="M403.990753,265.083333 C404.860097,265.083333 405.564839,265.788076 405.564839,266.65742 C405.564839,267.526764 404.860097,268.231506 403.990753,268.231506 C403.121409,268.231506 402.416667,267.526764 402.416667,266.65742 C402.416667,265.788076 403.121409,265.083333 403.990753,265.083333 Z M409.5,265.083333 C410.369344,265.083333 411.074086,265.788076 411.074086,266.65742 C411.074086,267.526764 410.369344,268.231506 409.5,268.231506 C408.630656,268.231506 407.925914,267.526764 407.925914,266.65742 C407.925914,265.788076 408.630656,265.083333 409.5,265.083333 Z M415.009247,265.083333 C415.878591,265.083333 416.583333,265.788076 416.583333,266.65742 C416.583333,267.526764 415.878591,268.231506 415.009247,268.231506 C414.139903,268.231506 413.435161,267.526764 413.435161,266.65742 C413.435161,265.788076 414.139903,265.083333 415.009247,265.083333 Z" id="Icons-/-Actions"></path>
        </g>
    </g>
</svg>