<?xml version="1.0" encoding="UTF-8"?>
<svg width="18px" height="17px" viewBox="0 0 18 17" version="1.1" xmlns="http://www.w3.org/2000/svg" xmlns:xlink="http://www.w3.org/1999/xlink">
    <!-- Generator: Sketch 61 (89581) - https://sketch.com -->
    <title>Icons / Alphabet</title>
    <desc>Created with Sketch.</desc>
    <g id="MOCKUP-CLOUDBEAT" stroke="none" stroke-width="1" fill="none" fill-rule="evenodd">
        <g id="01-—-CloudBeat-—-Devices-List-" transform="translate(-1273.000000, -269.000000)" fill="#1F263E">
            <path d="M1282.35333,269 L1280.34296,271.011222 L1284.36456,271.011222 L1282.35333,269 Z M1276.83333,272.382704 L1273,282.144926 L1274.56741,282.144926 L1275.35111,280.057889 L1279.70493,280.057889 L1280.48778,282.144926 L1282.05519,282.144926 L1278.23037,272.382704 L1276.83333,272.382704 Z M1277.52333,274.248259 L1279.17593,278.66 L1275.87159,278.66 L1277.52333,274.248259 Z M1283.01778,272.39037 L1283.01778,273.753333 L1288.02667,273.753333 L1282.98456,281.046037 L1282.98456,282.144926 L1290.25,282.144926 L1290.25,280.78963 L1285.03752,280.78963 L1290.08815,273.464556 L1290.08815,272.39037 L1283.01778,272.39037 Z M1280.36852,283.541111 L1282.35333,285.525926 L1284.33815,283.541111 L1280.36852,283.541111 Z" id="Icons-/-Alphabet"></path>
        </g>
    </g>
</svg>