<svg viewBox="0 0 140 32" version="1.1" xmlns="http://www.w3.org/2000/svg" xmlns:xlink="http://www.w3.org/1999/xlink">
    <g id="MOCKUP-CLOUDBEAT" stroke="none" stroke-width="1" fill="none" fill-rule="evenodd">
        <g id="CLOUDBEAT-DEVICES-LIST-1.3" transform="translate(-23.000000, -17.000000)">
            <g id="TOOLBAR" transform="translate(-5.000000, 0.000000)">
                <g id="Logo-cloudbeat" transform="translate(5.000000, 17.000000)">
                    <g id="Group" transform="translate(22.999967, 0.657080)">
                        <path d="M6.1335446,4.51200939 C9.90171362,4.51200939 11.798615,6.89595305 11.798615,8.33144601 C11.798615,9.27989671 11.1327934,10.0745446 10.1324178,10.0745446 C9.49223005,10.0745446 9.05579812,9.81820657 8.77382629,9.30553052 C8.20988263,8.2545446 7.33767606,7.79313615 6.23673709,7.79313615 C4.56988263,7.79313615 3.62143192,8.76722066 3.46762911,10.2539812 C3.4163615,10.8691925 3.4163615,12.0233709 3.46762911,12.7148263 C3.62143192,14.2015869 4.54424883,15.3294742 6.23673709,15.3294742 C7.33767606,15.3294742 8.23551643,14.8174554 8.79946009,13.7658122 C9.08143192,13.2537934 9.51786385,12.9711643 10.1580516,12.9711643 C11.1584272,12.9711643 11.8249061,13.7658122 11.8249061,14.7398967 C11.8249061,16.1753897 9.87607981,18.6106009 6.1335446,18.6106009 C2.77551643,18.6106009 0.314671362,16.2522911 0.0576760563,13.2281596 C-0.0192253521,12.1765164 -0.0192253521,10.7673146 0.0576760563,9.74130516 C0.263403756,6.66524883 2.80115023,4.51200939 6.1335446,4.51200939 Z M25.1535634,4.51220657 C28.5378826,4.51220657 31.0243615,6.66544601 31.2806995,9.74150235 C31.3576009,10.7668545 31.3576009,12.3561502 31.2806995,13.3815023 C31.0243615,16.4575587 28.5378826,18.6107981 25.1535634,18.6107981 C21.7955352,18.6107981 19.2577887,16.4575587 19.0014507,13.4071362 C18.9245493,12.381784 18.9245493,10.7668545 19.0014507,9.74150235 C19.2577887,6.66544601 21.7955352,4.51220657 25.1535634,4.51220657 Z M43.2505023,4.58864789 C44.1996103,4.58864789 44.9686244,5.38329577 44.9686244,6.35738028 L44.9686244,15.9450798 C44.9686244,16.5346573 44.8141643,16.8678967 44.3534131,17.1498685 C43.5587653,17.7138122 41.6868404,18.610338 38.9446808,18.610338 C35.2527559,18.610338 33.1251502,16.6109014 33.1251502,12.9965352 L33.1251502,6.40864789 C33.1251502,5.38329577 33.7410188,4.58864789 34.8169812,4.58864789 C35.7910657,4.58864789 36.5600798,5.38329577 36.5600798,6.40864789 L36.5600798,12.9452676 C36.5600798,14.4839531 37.5597981,15.3292113 39.0209249,15.3292113 C40.1494695,15.3292113 40.995385,14.9959718 41.5330376,14.6633897 L41.5330376,6.35738028 C41.5330376,5.38329577 42.250784,4.58864789 43.2505023,4.58864789 Z M57.2727183,0.000394366197 C58.2468028,0.000394366197 58.9901831,0.769408451 58.9901831,1.76912676 L58.9901831,15.8164507 C58.9901831,16.3810516 58.8363803,16.7136338 58.3743146,17.0212394 C57.6565681,17.5339155 55.6058638,18.6105352 52.9918732,18.6105352 C49.4281174,18.6105352 47.1979765,16.4066854 46.9160047,13.2793615 C46.838446,12.3821784 46.838446,10.6640563 46.9160047,9.74123944 C47.1979765,6.56264789 49.1461455,4.51194366 52.5304648,4.51194366 C53.5551596,4.51194366 54.7855822,4.8195493 55.5552535,5.15278873 L55.5552535,1.76912676 C55.5552535,0.769408451 56.3242676,0.000394366197 57.2727183,0.000394366197 Z M63.1937981,-4.08562073e-14 C64.1422488,-4.08562073e-14 64.9112629,0.769014085 64.9112629,1.76938967 L64.9112629,5.15239437 C65.680277,4.81915493 66.9106995,4.51220657 67.9360516,4.51220657 C71.3197136,4.51220657 73.2429061,6.5629108 73.5498545,9.74150235 C73.6267559,10.6899531 73.6267559,12.3561502 73.5498545,13.2789671 C73.2678826,16.4062911 71.0370845,18.6107981 67.4746432,18.6107981 C64.8599953,18.6107981 62.8342676,17.5085446 62.0908873,16.9958685 C61.6301362,16.6882629 61.4756761,16.3550235 61.4756761,15.7910798 L61.4756761,1.76938967 C61.4756761,0.769014085 62.2190563,-4.08562073e-14 63.1937981,-4.08562073e-14 Z M80.957892,4.51174648 C84.4440892,4.51174648 86.8280329,6.84442254 86.8280329,10.4587887 L86.8280329,11.0233897 C86.8280329,12.023108 86.3160141,12.7408545 85.0599577,12.7408545 L78.2407089,12.7408545 L78.2407089,12.9965352 C78.2407089,14.6114648 79.4711315,15.4836714 81.1885962,15.4836714 C82.1114131,15.4836714 83.0605211,15.2529671 83.9314131,14.9197277 C85.2900047,14.4070516 86.1871878,15.3292113 86.1871878,16.2783192 C86.1871878,16.7653615 86.0077512,17.3036714 85.3156385,17.7138122 C84.3671878,18.2777559 82.7266244,18.610338 81.086061,18.610338 C77.5485962,18.610338 75.1646526,16.3808545 74.9076573,13.1766291 C74.8307559,12.1762535 74.8563897,10.7670516 74.9076573,9.97240376 C75.2159202,6.64000939 77.5998638,4.51174648 80.957892,4.51174648 Z M93.7486338,4.51207512 C97.363,4.51207512 99.4137042,6.10137089 99.4137042,9.71573709 L99.4137042,15.9960188 C99.4137042,16.5855962 99.2605587,16.8938592 98.7991502,17.2008075 C98.0807465,17.688507 96.2351127,18.6106667 93.3897606,18.6106667 C89.6728592,18.6106667 87.9810282,16.5349859 87.9810282,14.0997746 C87.9810282,11.9202441 89.4927653,9.92080751 93.2615915,9.92080751 C94.3894789,9.92080751 95.1335164,10.0746103 96.1069437,10.3053146 L96.1069437,9.61320188 C96.1069437,8.28024413 95.4660986,7.61376526 93.6717324,7.61376526 C92.7745493,7.61376526 91.8517324,7.84446948 91.2108873,8.04953991 C89.7497606,8.51094836 88.8525775,7.76756808 88.8525775,6.71658216 C88.8525775,6.12700469 89.1089155,5.51113615 89.9804648,5.15226291 C90.6982113,4.84531455 92.1849718,4.51207512 93.7486338,4.51207512 Z M103.233798,1.6410892 C104.181592,1.6410892 104.950606,2.43573709 104.950606,3.4354554 L104.950606,5.17789671 L108.155488,5.17789671 C109.001404,5.17789671 109.744784,5.81939906 109.744784,6.71658216 C109.744784,7.56184038 109.001404,8.20334272 108.155488,8.20334272 L104.950606,8.20334272 L104.950606,13.4839061 C104.950606,14.7143286 105.488915,15.3808075 106.616803,15.3808075 C107.181404,15.3808075 107.745347,15.227662 108.206756,15.0988357 C109.513423,14.79123 110.334362,15.612169 110.334362,16.5606197 C110.334362,17.1239061 110.05239,17.7141408 109.257742,18.0730141 C108.360559,18.4831549 107.103845,18.6106667 106.130418,18.6106667 C102.951169,18.6106667 101.515676,16.4324507 101.515676,13.5608075 L101.515676,3.4354554 C101.515676,2.43573709 102.259056,1.6410892 103.233798,1.6410892 Z M15.2331502,0.0262253521 C16.1816009,0.0262253521 16.950615,0.820215962 16.950615,1.81993427 L16.950615,16.7650986 C16.950615,17.7398404 16.2328685,18.5344883 15.2331502,18.5344883 C14.3096761,18.5344883 13.5150282,17.7398404 13.5150282,16.7650986 L13.5150282,1.81993427 C13.5150282,0.820215962 14.2584085,0.0262253521 15.2331502,0.0262253521 Z M93.5442207,12.3047512 C92.159338,12.3047512 91.3134225,12.9968638 91.3134225,13.9709484 C91.3134225,15.0988357 92.2106056,15.6890704 93.6204648,15.6890704 C95.0303239,15.6890704 95.8249718,15.2013709 96.1069437,15.0219343 L96.1069437,12.714892 C95.2353944,12.4592113 94.5176479,12.3047512 93.5442207,12.3047512 Z M25.1535634,7.79333333 C23.5386338,7.79333333 22.5389155,8.81802817 22.4100892,10.2798122 C22.3594789,10.9719249 22.3594789,12.1767136 22.4100892,12.8431925 C22.5389155,14.3043192 23.5386338,15.3296714 25.1535634,15.3296714 C26.768493,15.3296714 27.7688685,14.3043192 27.8714038,12.8431925 C27.9220141,12.1767136 27.9220141,10.9719249 27.8714038,10.2798122 C27.7945023,8.81802817 26.768493,7.79333333 25.1535634,7.79333333 Z M52.8637042,7.79307042 C51.2224836,7.79307042 50.4534695,8.71588732 50.3509343,10.2795493 C50.2996667,10.8691268 50.2996667,12.0739155 50.3509343,12.7666854 C50.4534695,14.4328826 51.4025775,15.3294085 53.0687746,15.3294085 C53.9653005,15.3294085 55.1444554,14.8942911 55.5552535,14.5347606 L55.5552535,8.4851831 C55.1188216,8.20321127 53.9909343,7.79307042 52.8637042,7.79307042 Z M67.6028122,7.79333333 C66.4749249,7.79333333 65.3463803,8.20347418 64.9112629,8.48478873 L64.9112629,14.5350235 C65.3207465,14.8938967 66.4749249,15.3296714 67.3977418,15.3296714 C69.063939,15.3296714 69.9867559,14.3812207 70.1149249,12.7150235 C70.1661925,12.0229108 70.1405587,10.8687324 70.1149249,10.305446 C70.0123897,8.71615023 69.2433756,7.79333333 67.6028122,7.79333333 Z M80.957892,7.48592488 C79.137892,7.48592488 78.2407089,8.63944601 78.2407089,10.4075211 L83.2393005,10.4075211 C83.4187371,10.4075211 83.5212723,10.3056432 83.5212723,10.0999155 C83.5981737,8.53625352 82.6240892,7.48592488 80.957892,7.48592488 Z" id="Combined-Shape" fill="#FFFFFF"></path>
                        <polygon id="Fill-22" fill="#3DC0EF" points="123.232437 30.7169859 119.687742 12.7595211 116.697789 27.9031831 114.233657 19.2271268 113.462671 21.9594272 98.7370376 21.9594272 98.7370376 19.9875962 111.969338 19.9875962 114.227085 11.9865634 116.352061 19.4716338 119.687742 2.57830047 123.53807 22.0849671 125.806333 13.7520094 127.715723 19.6149202 139.981169 19.6149202 139.981169 21.5867512 126.284831 21.5867512 125.975911 20.6383005"></polygon>
                    </g>
                </g>
            </g>
        </g>
    </g>
</svg>