<svg width="18px" height="18px" viewBox="0 0 18 18" version="1.1" 
    xmlns="http://www.w3.org/2000/svg" 
    xmlns:xlink="http://www.w3.org/1999/xlink">
    <g id="MOCKUP-CLOUDBEAT" stroke="none" stroke-width="1">
        <g id="04-—-CloudBeat-—-Projects-dropdown" transform="translate(-16.000000, -85.000000)">
            <path d="M22.8566893,85 C23.8023613,85 24.5714286,85.7680288 24.5714286,86.7119319 C24.5714286,87.2670601 24.1110654,87.719044 23.5446827,87.7201019 C23.5557382,87.7214243 23.5432653,87.7402018 23.5432653,87.7671781 L23.5432653,87.7671781 L23.5432653,98.8483205 C23.5432653,100.664984 22.0819526,102.142857 20.285856,102.142857 C18.4897595,102.142857 17.0284467,100.664984 17.0284467,98.8483205 L17.0284467,98.8483205 L17.0284467,87.7671781 C17.0284467,87.738615 17.0145564,87.719044 17.0097374,87.7156059 C16.4748203,87.7161348 16,87.2678536 16,86.7119319 C16,85.7680288 16.7693507,85 17.7153062,85 L17.7153062,85 Z M32.5680802,91 C33.3576589,91 34,91.5571685 34,92.242048 C34,92.65359 33.646905,92.9934704 33.1958351,93.0359555 L33.1958351,93.0359555 L33.196936,94.3089715 C33.198312,94.3230478 33.2013394,94.3366124 33.2013394,94.3512006 C33.2013394,94.365277 33.198312,94.3788415 33.196936,94.3926619 L33.196936,94.3926619 L33.1980368,95.6510897 C33.1988625,95.6618389 33.2013394,95.6720763 33.2013394,95.6830814 C33.2013394,95.6938307 33.1988625,95.704068 33.1980368,95.7145613 L33.1980368,95.7145613 L33.1988625,96.9932079 C33.1994129,97.00063 33.2013394,97.0077961 33.2013394,97.0152182 C33.2013394,97.0226403 33.1994129,97.0295505 33.1991377,97.0367167 L33.1991377,97.0367167 L33.2002385,98.3355821 C33.2002385,98.339677 33.2013394,98.3432601 33.2013394,98.347355 C33.2013394,98.35145 33.2002385,98.355033 33.2002385,98.3588721 L33.2002385,98.3588721 L33.2013394,99.9013866 C33.2013394,101.137292 32.0217875,102.142857 30.5714286,102.142857 C29.1213449,102.142857 27.9412426,101.137292 27.9412426,99.9013866 L27.9412426,99.9013866 L27.9412426,93.0354436 C27.491824,92.9898873 27.1428571,92.6515425 27.1428571,92.242048 C27.1428571,91.5571685 27.7851983,91 28.574777,91 L28.574777,91 Z M32.2012247,94.8162328 L28.9416325,94.8162328 L28.9416325,99.9013866 C28.9416325,100.6244 29.6725913,101.212537 30.5714286,101.212537 C31.4699906,101.212537 32.2012247,100.6244 32.2012247,99.9013866 L32.2012247,99.9013866 L32.2012247,99.5666249 L31.3700892,99.5666249 C31.0943284,99.5666249 30.8700319,99.3580386 30.8700319,99.1015927 C30.8700319,98.8451468 31.0943284,98.6363046 31.3700892,98.6363046 L31.3700892,98.6363046 L32.2012247,98.6363046 L32.2012247,97.978554 L31.3700892,97.978554 C31.0943284,97.978554 30.8700319,97.7697118 30.8700319,97.5132659 C30.8700319,97.25682 31.0943284,97.0482337 31.3700892,97.0482337 L31.3700892,97.0482337 L32.2012247,97.0482337 L32.2012247,96.3902273 L31.3700892,96.3902273 C31.0943284,96.3902273 30.8700319,96.181641 30.8700319,95.9251951 C30.8700319,95.6687491 31.0943284,95.4599069 31.3700892,95.4599069 L31.3700892,95.4599069 L32.2012247,95.4599069 L32.2012247,94.8162328 Z M22.5128343,90.5343561 L18.0588777,90.5343561 L18.0588777,98.8483205 C18.0588777,100.134716 19.057843,101.181763 20.285856,101.181763 C21.513869,101.181763 22.5128343,100.134716 22.5128343,98.8483205 L22.5128343,98.8483205 L22.5128343,96.8663619 L21.3143027,96.8663619 C21.0302609,96.8663619 20.7989455,96.6505522 20.7989455,96.385815 C20.7989455,96.1208133 21.0302609,95.9050036 21.3143027,95.9050036 L21.3143027,95.9050036 L22.5128343,95.9050036 L22.5128343,94.7556052 L21.3143027,94.7556052 C21.0302609,94.7556052 20.7989455,94.5400599 20.7989455,94.2750582 C20.7989455,94.0100566 21.0302609,93.7945113 21.3143027,93.7945113 L21.3143027,93.7945113 L22.5128343,93.7945113 L22.5128343,92.6451129 L21.3143027,92.6451129 C21.0302609,92.6451129 20.7989455,92.4293031 20.7989455,92.1643015 C20.7989455,91.8992998 21.0302609,91.6837545 21.3143027,91.6837545 L21.3143027,91.6837545 L22.5128343,91.6837545 L22.5128343,90.5343561 Z M32.5680802,91.9303203 L28.574777,91.9303203 C28.3994679,91.9303203 28.2453501,92.0086361 28.178474,92.1191996 C28.6102791,92.1775526 28.9416325,92.5089872 28.9416325,92.9079884 L28.9416325,92.9079884 L28.9416325,93.8859125 L32.2012247,93.8859125 L32.2012247,92.9079884 C32.2012247,92.5074516 32.5353301,92.1749933 32.9696122,92.1184318 C32.9046625,92.0165701 32.7565993,91.9303203 32.5680802,91.9303203 L32.5680802,91.9303203 Z M22.8566893,85.9613583 L17.7153062,85.9613583 C17.3377177,85.9613583 17.030431,86.2980321 17.030431,86.7119319 C17.030431,86.7441976 17.0451717,86.7603304 17.0491404,86.7632396 C17.0516916,86.7632396 17.0542429,86.7629751 17.0567942,86.7629751 C17.6013493,86.7629751 18.0588777,87.2136367 18.0588777,87.7671781 L18.0588777,87.7671781 L18.0588777,89.5732622 L22.5128343,89.5732622 L22.5128343,87.7671781 C22.5128343,87.2120498 22.9731975,86.7603304 23.5398636,86.7590081 C23.5285247,86.7579502 23.5409975,86.7389081 23.5409975,86.7119319 C23.5409975,86.2980321 23.2339943,85.9613583 22.8566893,85.9613583 L22.8566893,85.9613583 Z" id="Combined-Shape"></path>
        </g>
    </g>
</svg>