<?xml version="1.0" encoding="UTF-8"?>
<svg width="15px" height="15px" viewBox="0 0 15 15" version="1.1" xmlns="http://www.w3.org/2000/svg" xmlns:xlink="http://www.w3.org/1999/xlink">
    <!-- Generator: Sketch 61 (89581) - https://sketch.com -->
    <title>Icons / Grid </title>
    <desc>Created with Sketch.</desc>
    <g id="MOCKUP-CLOUDBEAT" stroke="none" stroke-width="1" fill="none" fill-rule="evenodd">
        <g id="01-—-CloudBeat-—-Devices-List-" transform="translate(-1310.000000, -270.000000)" fill="#1F263E">
            <path d="M1313.54895,280.951049 L1313.54895,284.5 L1310,284.5 L1310,280.951049 L1313.54895,280.951049 Z M1319.02448,280.951049 L1319.02448,284.5 L1315.47552,284.5 L1315.47552,280.951049 L1319.02448,280.951049 Z M1324.5,280.951049 L1324.5,284.5 L1320.95105,284.5 L1320.95105,280.951049 L1324.5,280.951049 Z M1313.54895,275.475524 L1313.54895,279.024476 L1310,279.024476 L1310,275.475524 L1313.54895,275.475524 Z M1319.02448,275.475524 L1319.02448,279.024476 L1315.47552,279.024476 L1315.47552,275.475524 L1319.02448,275.475524 Z M1324.5,275.475524 L1324.5,279.024476 L1320.95105,279.024476 L1320.95105,275.475524 L1324.5,275.475524 Z M1313.54895,270 L1313.54895,273.548951 L1310,273.548951 L1310,270 L1313.54895,270 Z M1319.02448,270 L1319.02448,273.548951 L1315.47552,273.548951 L1315.47552,270 L1319.02448,270 Z M1324.5,270 L1324.5,273.548951 L1320.95105,273.548951 L1320.95105,270 L1324.5,270 Z" id="Icons-/-Grid-"></path>
        </g>
    </g>
</svg>