<?xml version="1.0" encoding="UTF-8"?>
<svg width="18px" height="15px" viewBox="0 0 18 15" version="1.1" xmlns="http://www.w3.org/2000/svg" xmlns:xlink="http://www.w3.org/1999/xlink">
    <!-- Generator: Sketch 61 (89581) - https://sketch.com -->
    <title>Icons / List</title>
    <desc>Created with Sketch.</desc>
    <g id="MOCKUP-CLOUDBEAT" stroke="none" stroke-width="1" fill="none" fill-rule="evenodd">
        <g id="01-—-CloudBeat-—-Devices-List-" transform="translate(-1344.000000, -270.000000)" fill="#3DC0EF" fill-rule="nonzero">
            <path d="M1344,270 L1344,284.564055 L1362,284.564055 L1362,270 L1344,270 Z M1348.23529,272.080579 L1348.23529,274.161158 L1346.11765,274.161158 L1346.11765,272.080579 L1348.23529,272.080579 Z M1346.11765,278.322317 L1346.11765,276.241738 L1348.23529,276.241738 L1348.23529,278.322317 L1346.11765,278.322317 Z M1346.11765,280.402896 L1348.23529,280.402896 L1348.23529,282.483475 L1346.11765,282.483475 L1346.11765,280.402896 Z M1359.88235,282.483475 L1350.35294,282.483475 L1350.35294,280.402896 L1359.88235,280.402896 L1359.88235,282.483475 Z M1359.88235,278.322317 L1350.35294,278.322317 L1350.35294,276.241738 L1359.88235,276.241738 L1359.88235,278.322317 Z M1359.88235,274.161158 L1350.35294,274.161158 L1350.35294,272.080579 L1359.88235,272.080579 L1359.88235,274.161158 Z" id="Icons-/-List"></path>
        </g>
    </g>
</svg>