<svg width="18px" height="17px" viewBox="0 0 19 17" version="1.1" xmlns="http://www.w3.org/2000/svg" xmlns:xlink="http://www.w3.org/1999/xlink">
    <g id="MOCKUP-CLOUDBEAT" stroke="none" stroke-width="1">
        <g id="01-—-CloudBeat-—-Devices-List-" transform="translate(-15.000000, -369.000000)" stroke="#000000" stroke-width="0">
            <path d="M33.844484,370.033301 L33.844484,382.427333 L26.0357591,382.427333 L26.0357591,384.741116 L27.3906228,384.741116 L27.3906228,385.298627 L22.4538612,385.298627 L22.4538612,384.741116 L23.8088364,384.741116 L23.8088364,382.427333 L16,382.427333 L16,370.033301 L33.844484,370.033301 Z M25.4782479,382.431235 L24.3662361,382.431235 L24.3662361,384.728962 L25.4782479,384.728962 L25.4782479,382.431235 Z M33.2868613,381.077375 L16.5575112,381.077375 L16.5575112,381.869821 L33.2868613,381.869821 L33.2868613,381.077375 Z M33.2868613,370.590812 L16.5575112,370.590812 L16.5575112,380.519864 L33.2868613,380.519864 L33.2868613,370.590812 Z M32.2952719,372.623643 L32.0986934,374.122791 L31.6965048,373.814487 L27.4155993,379.083414 C27.3654233,379.144629 27.2917204,379.181647 27.2133343,379.184881 C27.1388508,379.19079 27.0607992,379.160908 27.0032641,379.101366 L27.0032641,379.101366 L24.7748918,376.807542 L23.0104803,379.356037 C22.9589663,379.43052 22.8741131,379.474898 22.7835733,379.474898 L22.7835733,379.474898 L22.7665134,379.474341 C22.6719595,379.468989 22.5847648,379.413126 22.5397179,379.328384 L22.5397179,379.328384 L20.2371966,374.986375 L17.9522927,378.903449 C17.8755792,379.035022 17.7062073,379.0794 17.5748576,379.002909 L17.5748576,379.002909 L17.523906,378.964676 C17.4332361,378.878607 17.4098343,378.738155 17.4753976,378.625474 L17.4753976,378.625474 L20.0102896,374.280009 C20.0595736,374.195825 20.1520089,374.143419 20.2515804,374.143084 C20.354497,374.145314 20.4457058,374.201511 20.4925368,374.289709 L20.4925368,374.289709 L22.8147939,378.66896 L24.512081,376.21736 C24.5594695,376.149232 24.63373,376.106192 24.7160186,376.099391 C24.8000913,376.094039 24.8805959,376.124033 24.937016,376.182237 L24.937016,376.182237 L27.1830057,378.494124 L31.258301,373.478642 L30.8985948,373.203009 L32.2952719,372.623643 Z" id="Monitors"></path>
        </g>
    </g>
</svg>