<svg width="18px" height="19px" viewBox="0 0 13 19" version="1.1" 
    xmlns="http://www.w3.org/2000/svg" 
    xmlns:xlink="http://www.w3.org/1999/xlink">
    <g id="MOCKUP-CLOUDBEAT" stroke="none" stroke-width="1">
        <g id="01-—-CloudBeat-—-Devices-List-" transform="translate(-19.000000, -429.000000)">
            <path d="M30.7037896,429.333089 C31.1441731,429.333089 31.501545,429.690461 31.501545,430.130844 L31.501545,430.130844 L31.501545,446.805199 C31.501545,447.245582 31.1441731,447.602954 30.7037896,447.602954 L30.7037896,447.602954 L19.7977554,447.602954 C19.3573719,447.602954 19,447.245582 19,446.805199 L19,446.805199 L19,430.130844 C19,429.690461 19.3573719,429.333089 19.7977554,429.333089 L19.7977554,429.333089 Z M30.6573594,430.177275 L19.8441856,430.177275 L19.8441856,446.758769 L30.6573594,446.758769 L30.6573594,430.177275 Z M23.3248755,443.216228 C23.4349011,443.326254 23.4349011,443.504377 23.3248755,443.614121 L22.667,444.272089 L23.3248474,444.929644 C23.4348729,445.039669 23.4348729,445.217511 23.3248474,445.327536 C23.2699753,445.382408 23.1979382,445.409985 23.125901,445.409985 C23.0538638,445.409985 22.9818266,445.382408 22.9269546,445.327536 L22.269,444.670089 L21.6114601,445.327536 C21.556588,445.382408 21.4845509,445.409985 21.4125137,445.409985 C21.3404765,445.409985 21.2684393,445.382408 21.2135673,445.327536 C21.1035418,445.217511 21.1035418,445.039669 21.2135673,444.929644 L21.871,444.272089 L21.2135391,443.614121 C21.1035136,443.504377 21.1035136,443.326254 21.2135391,443.216228 C21.3235647,443.106203 21.5016878,443.106203 21.611432,443.216228 L22.269,443.874089 L22.9269827,443.216228 C23.0367268,443.106203 23.21485,443.106203 23.3248755,443.216228 Z M29.0890594,443.917831 C29.244671,443.917831 29.3704547,444.043896 29.3704547,444.199226 C29.3704547,444.354556 29.244671,444.480621 29.0890594,444.480621 L25.4179775,444.480621 C25.262366,444.480621 25.1365823,444.354556 25.1365823,444.199226 C25.1365823,444.043896 25.262366,443.917831 25.4179775,443.917831 L29.0890594,443.917831 Z M23.7574644,440.421383 C23.8542644,440.542664 23.8345667,440.719662 23.7132854,440.816743 L22.1357838,442.078801 C22.0854141,442.118759 22.0235071,442.140426 21.9599118,442.140426 C21.9480932,442.140426 21.9362746,442.139863 21.924456,442.138175 C21.8487607,442.128607 21.7803817,442.088649 21.7347956,442.027868 L21.2091494,441.326913 C21.1157262,441.202536 21.1410517,441.026101 21.2654284,440.932959 C21.3898051,440.838973 21.5662399,440.864862 21.6593817,440.989238 L22.0108443,441.458043 L23.3615413,440.377204 C23.4833855,440.280122 23.6601017,440.29982 23.7574644,440.421383 Z M29.0673357,440.743327 C29.2229473,440.743327 29.3487309,440.869392 29.3487309,441.024722 C29.3487309,441.180052 29.2229473,441.306117 29.0673357,441.306117 L25.3962538,441.306117 C25.2406423,441.306117 25.1148586,441.180052 25.1148586,441.024722 C25.1148586,440.869392 25.2406423,440.743327 25.3962538,440.743327 L29.0673357,440.743327 Z M23.7574644,437.377559 C23.8542644,437.49884 23.8345667,437.675838 23.7132854,437.772919 L22.1357838,439.034977 C22.0854141,439.074935 22.0235071,439.096602 21.9599118,439.096602 C21.9480932,439.096602 21.9362746,439.096039 21.924456,439.094351 C21.8487607,439.084784 21.7803817,439.044825 21.7347956,438.984044 L21.2091494,438.282807 C21.1157262,438.158712 21.1410517,437.982277 21.2654284,437.888854 C21.3898051,437.795431 21.5662399,437.821038 21.6593817,437.945133 L22.0108443,438.414219 L23.3615413,437.33338 C23.4833855,437.236298 23.6601017,437.256278 23.7574644,437.377559 Z M29.0673357,437.699362 C29.2229473,437.699362 29.3487309,437.825427 29.3487309,437.980758 C29.3487309,438.136088 29.2229473,438.262153 29.0673357,438.262153 L25.3962538,438.262153 C25.2406423,438.262153 25.1148586,438.136088 25.1148586,437.980758 C25.1148586,437.825427 25.2406423,437.699362 25.3962538,437.699362 L29.0673357,437.699362 Z M23.7574644,434.333735 C23.8542644,434.455016 23.8345667,434.632014 23.7132854,434.729095 L22.1357838,435.991153 C22.0854141,436.031111 22.0235071,436.052778 21.9599118,436.052778 C21.9480932,436.052778 21.9362746,436.052216 21.924456,436.050527 C21.8487607,436.04096 21.7803817,436.001002 21.7347956,435.94022 L21.2091494,435.238983 C21.1157262,435.114888 21.1410517,434.938453 21.2654284,434.84503 C21.3898051,434.751607 21.5662399,434.777214 21.6593817,434.901309 L22.0108443,435.370395 L23.3615413,434.289556 C23.4833855,434.192475 23.6601017,434.212172 23.7574644,434.333735 Z M29.0673357,434.655539 C29.2229473,434.655539 29.3487309,434.781604 29.3487309,434.936934 C29.3487309,435.092264 29.2229473,435.218329 29.0673357,435.218329 L25.3962538,435.218329 C25.2406423,435.218329 25.1148586,435.092264 25.1148586,434.936934 C25.1148586,434.781604 25.2406423,434.655539 25.3962538,434.655539 L29.0673357,434.655539 Z M23.7574644,431.289911 C23.8542644,431.411193 23.8345667,431.58819 23.7132854,431.685271 L22.1357838,432.947329 C22.0854141,432.987287 22.0235071,433.008955 21.9599118,433.008955 C21.9480932,433.008955 21.9362746,433.008392 21.924456,433.006703 C21.8487607,432.997136 21.7803817,432.957178 21.7347956,432.896396 L21.2091494,432.19516 C21.1157262,432.071064 21.1410517,431.894629 21.2654284,431.801206 C21.3898051,431.707783 21.5662399,431.73339 21.6593817,431.857485 L22.0108443,432.326571 L23.3615413,431.245732 C23.4833855,431.148651 23.6601017,431.16863 23.7574644,431.289911 Z M29.0673357,431.69664 C29.2229473,431.69664 29.3487309,431.822705 29.3487309,431.978035 C29.3487309,432.133365 29.2229473,432.25943 29.0673357,432.25943 L25.3962538,432.25943 C25.2406423,432.25943 25.1148586,432.133365 25.1148586,431.978035 C25.1148586,431.822705 25.2406423,431.69664 25.3962538,431.69664 L29.0673357,431.69664 Z" id="Projects"></path>
        </g>
    </g>
</svg>