<?xml version="1.0" encoding="UTF-8"?>
<svg width="12px" height="16px" viewBox="0 0 12 16" version="1.1" xmlns="http://www.w3.org/2000/svg" xmlns:xlink="http://www.w3.org/1999/xlink">
    <!-- Generator: Sketch 61 (89581) - https://sketch.com -->
    <title>Icons / Remove</title>
    <desc>Created with Sketch.</desc>
    <defs>
        <path d="M31.3628793,48.6361607 L28.1571454,48.6361607 L28.1571454,48.1741071 C28.1571454,47.6637369 27.7857985,47.25 27.3277188,47.25 L24.7564963,47.25 C24.3310823,47.2976303 24.0078697,47.6977502 24.0100124,48.1741071 L24.0100124,48.6361607 L20.6923059,48.6361607 C20.4632661,48.6361607 20.2775926,48.8430291 20.2775926,49.0982143 C20.2775926,49.3533994 20.4632661,49.5602679 20.6923059,49.5602679 L31.3628793,49.5602679 C31.5919191,49.5602679 31.7775926,49.3533994 31.7775926,49.0982143 C31.7775926,48.8430291 31.5919191,48.6361607 31.3628793,48.6361607 Z M21.1070192,50.484375 L21.1070192,60.6495536 C21.0992273,61.0086371 21.2198328,61.3564521 21.4422854,61.6164305 C21.664738,61.8764088 21.9708017,62.0272379 22.2930993,62.0357143 L29.8533228,62.0357143 C30.1792425,62.0333394 30.4906429,61.885185 30.7175719,61.6245321 C30.9445009,61.3638791 31.0679322,61.0125815 31.0601386,60.6495536 L31.0601386,50.484375 L21.1070192,50.484375 Z M24.839439,59.7254464 L24.0100124,59.7254464 L24.0100124,52.7946429 L24.839439,52.7946429 L24.839439,59.7254464 Z M28.1571454,59.7254464 L27.3277188,59.7254464 L27.3277188,52.7946429 L28.1571454,52.7946429 L28.1571454,59.7254464 Z" id="path-1"></path>
    </defs>
    <g id="MOCKUP-CLOUDBEAT" stroke="none" stroke-width="1" fill="none" fill-rule="evenodd">
        <g id="02-—-CloudBeat-—-Devices-List-—-Actions" transform="translate(-1271.000000, -181.000000)">
            <g id="Group-8" transform="translate(1251.000000, 134.000000)">
                <mask id="mask-2" fill="white">
                    <use xlink:href="#path-1"></use>
                </mask>
                <use id="Icons-/-Remove" fill="#1E2441" xlink:href="#path-1"></use>
            </g>
        </g>
    </g>
</svg>