<?xml version="1.0" encoding="UTF-8"?>
<svg width="17px" height="17px" viewBox="0 0 17 17" version="1.1" xmlns="http://www.w3.org/2000/svg" xmlns:xlink="http://www.w3.org/1999/xlink">
    <!-- Generator: Sketch 61 (89581) - https://sketch.com -->
    <title>Icons / Search</title>
    <desc>Created with Sketch.</desc>
    <g id="MOCKUP-CLOUDBEAT" stroke="none" stroke-width="1" fill="none" fill-rule="evenodd">
        <g id="01-—-CloudBeat-—-Devices-List-" transform="translate(-1147.000000, -22.000000)" fill="#1F263E">
            <path d="M1163.57894,37.5248407 L1159.56587,33.3510474 C1160.5977,32.1244536 1161.16305,30.5811476 1161.16305,28.9744991 C1161.16305,25.2207195 1158.10899,22.1666667 1154.35521,22.1666667 C1150.60143,22.1666667 1147.54738,25.2207195 1147.54738,28.9744991 C1147.54738,32.7282787 1150.60143,35.7823315 1154.35521,35.7823315 C1155.76443,35.7823315 1157.10735,35.357286 1158.25551,34.5504099 L1162.29907,38.7558744 C1162.46808,38.931398 1162.6954,39.0281876 1162.939,39.0281876 C1163.16958,39.0281876 1163.38832,38.9402778 1163.55437,38.7804417 C1163.90719,38.4409381 1163.91844,37.87796 1163.57894,37.5248407 Z M1154.35521,23.942623 C1157.12985,23.942623 1159.38709,26.1998634 1159.38709,28.9744991 C1159.38709,31.7491348 1157.12985,34.0063753 1154.35521,34.0063753 C1151.58058,34.0063753 1149.32334,31.7491348 1149.32334,28.9744991 C1149.32334,26.1998634 1151.58058,23.942623 1154.35521,23.942623 Z" id="Icons-/-Search"></path>
        </g>
    </g>
</svg>